<mxfile host="Electron" agent="Mozilla/5.0 (Macintosh; Intel Mac OS X 10_15_7) AppleWebKit/537.36 (KHTML, like Gecko) draw.io/26.2.15 Chrome/134.0.6998.205 Electron/35.2.1 Safari/537.36" version="26.2.15">
  <diagram name="as-to-be" id="-FQbQIRzEgXYEJ3rUFKh">
    <mxGraphModel dx="1098" dy="1358" grid="1" gridSize="1" guides="1" tooltips="1" connect="1" arrows="1" fold="1" page="0" pageScale="1" pageWidth="827" pageHeight="1169" math="0" shadow="0">
      <root>
        <mxCell id="0" />
        <mxCell id="1" parent="0" />
        <mxCell id="wbwyxBnnDAt64wQGkXWY-1" value="&lt;div style=&quot;font-size: 1px&quot;&gt;&lt;font style=&quot;font-size:22.58px;font-family:Arial;color:#000000;direction:ltr;letter-spacing:0px;line-height:120%;opacity:1&quot;&gt;Зона доступности 1&lt;br&gt;&lt;/font&gt;&lt;/div&gt;" style="verticalAlign=bottom;align=center;overflow=width;vsdxID=5;fillColor=#e3ebff;gradientColor=none;shape=stencil(vVNBDsIgEHwNRwxCjHqu+g9iaUtEaBa09fdSwdpi9dBDb8vOwOwsGcQyW/FaIEqsA3MRjcxdhdgBUSp1JUA6XyF2RCwrDIgSzE3n4VzzjtlVV3PvXmjDPdLdoOQRTrvtavNqnAKXw9mDELkBIhDJaxrJZIy/YRLfbjFvpcVgHHfS6JGu4lAK7GVwoXg5gmwjRP3VjoMpqQcm9tPKs0z0Y6crWcBHqt0PN8tJspXFfmNKdpaBH8tYwML/VPjiE6dCKhXSOMTT+PlWiC47PgE=);strokeColor=none;spacingTop=-3;spacingBottom=-3;spacingLeft=-3;spacingRight=-3;points=[];labelBackgroundColor=none;rounded=0;html=1;whiteSpace=wrap;container=0;" vertex="1" parent="1">
          <mxGeometry x="951" y="499" width="390.22" height="582" as="geometry" />
        </mxCell>
        <mxCell id="wbwyxBnnDAt64wQGkXWY-2" style="edgeStyle=orthogonalEdgeStyle;rounded=0;orthogonalLoop=1;jettySize=auto;html=1;" edge="1" parent="1" source="wbwyxBnnDAt64wQGkXWY-8">
          <mxGeometry relative="1" as="geometry">
            <mxPoint x="1216" y="719" as="targetPoint" />
          </mxGeometry>
        </mxCell>
        <mxCell id="wbwyxBnnDAt64wQGkXWY-3" value="TCP" style="edgeLabel;html=1;align=center;verticalAlign=middle;resizable=0;points=[];container=0;" vertex="1" connectable="0" parent="wbwyxBnnDAt64wQGkXWY-2">
          <mxGeometry x="-0.0566" y="2" relative="1" as="geometry">
            <mxPoint as="offset" />
          </mxGeometry>
        </mxCell>
        <mxCell id="wbwyxBnnDAt64wQGkXWY-4" style="rounded=1;orthogonalLoop=1;jettySize=auto;html=1;entryX=0.659;entryY=-0.015;entryDx=0;entryDy=0;entryPerimeter=0;curved=0;" edge="1" parent="1" source="wbwyxBnnDAt64wQGkXWY-13" target="wbwyxBnnDAt64wQGkXWY-18">
          <mxGeometry relative="1" as="geometry">
            <Array as="points">
              <mxPoint x="1377" y="459" />
              <mxPoint x="1205" y="459" />
            </Array>
          </mxGeometry>
        </mxCell>
        <mxCell id="wbwyxBnnDAt64wQGkXWY-5" value="Active failover" style="edgeLabel;html=1;align=center;verticalAlign=middle;resizable=0;points=[];" vertex="1" connectable="0" parent="wbwyxBnnDAt64wQGkXWY-4">
          <mxGeometry x="0.1832" y="-1" relative="1" as="geometry">
            <mxPoint as="offset" />
          </mxGeometry>
        </mxCell>
        <mxCell id="wbwyxBnnDAt64wQGkXWY-6" value="" style="shape=image;verticalLabelPosition=bottom;verticalAlign=top;imageAspect=0;aspect=fixed;image=data:image/svg+xml,PHN2ZyB4bWxucz0iaHR0cDovL3d3dy53My5vcmcvMjAwMC9zdmciIHdpZHRoPSIzMiIgaGVpZ2h0PSIzMiIgdmlld0JveD0iMCAwIDMyIDMyIiBmaWxsPSJub25lIj4mI3hhOzxwYXRoIGQ9Ik0wIDE2QzAgNy4xNjM0NCA3LjE2MzQ0IDAgMTYgMFYwQzI0LjgzNjYgMCAzMiA3LjE2MzQ0IDMyIDE2VjE2QzMyIDI0LjgzNjYgMjQuODM2NiAzMiAxNiAzMlYzMkM3LjE2MzQ0IDMyIDAgMjQuODM2NiAwIDE2VjE2WiIgZmlsbD0iIzUyODJGRiIvPiYjeGE7PHBhdGggZD0iTTExLjk5NSAyNEw3LjAwMDk4IDE3LjczOEw4Ljc4MTk4IDkuOTI3TDE2IDYuNDUzTDIzLjIxOCA5LjkyOEwyNC45OTkgMTcuNzM5TDIwLjAwNSAyNEgxMS45OTVaTTIwIDEzLjE5NkwxNS45OTkgMTAuODk5TDEyIDEzLjE5NlYxOC4xTDE2IDIwLjQwMUwyMCAxOC4xVjEzLjE5NlpNMTguNzggMTMuODk2SDE4Ljc4N0wxNiAxNS40OTlMMTMuMjE0IDEzLjg5NUgxMy4yMTlMMTUuOTk5IDEyLjI5OUwxOC43OCAxMy44OTZaIiBmaWxsPSJ3aGl0ZSIvPiYjeGE7PC9zdmc+;container=0;" vertex="1" parent="1">
          <mxGeometry x="1216" y="569" width="28.571428571428573" height="28.571428571428573" as="geometry" />
        </mxCell>
        <mxCell id="wbwyxBnnDAt64wQGkXWY-7" style="vsdxID=5;fillColor=none;gradientColor=none;shape=stencil(vVPLEoIgFP0aljgEVuPa6j+YRGUica6U9vdhUKk4LWzG3X0cOPdcOIilTclrgShpDOiLaGVmSsQOiFJZlQKksRFiR8TSXIMoQN+qzOU175F9dNX3/obOnSP9CUoeLktIFL8KJ4flcLZN8NhtRJiDwxsf7VwhQHjAhniCDvNONhi04UbqakSuOBQCWy6cK16MWk0rRB2U/XRKVgMlSRwl+1nyhWI+s0+Xs4KYgNvPtlBKuJvVniX4En+9yfxWVpDx2yc2+Bosl0o5fw77U0PakjMzOz4B);strokeColor=#ff5958;spacingTop=-3;spacingBottom=-3;spacingLeft=-3;spacingRight=-3;points=[];labelBackgroundColor=none;rounded=0;html=1;whiteSpace=wrap;container=0;" vertex="1" parent="1">
          <mxGeometry x="1152" y="559" width="130" height="100" as="geometry" />
        </mxCell>
        <mxCell id="wbwyxBnnDAt64wQGkXWY-8" value="&lt;div style=&quot;font-size: 1px&quot;&gt;&lt;font style=&quot;font-size:22.58px;font-family:Arial;color:#000000;direction:ltr;letter-spacing:0px;line-height:120%;opacity:1&quot;&gt;InsureTech&lt;/font&gt;&lt;/div&gt;&lt;div style=&quot;font-size: 1px&quot;&gt;&lt;font style=&quot;font-size:22.58px;font-family:Arial;color:#000000;direction:ltr;letter-spacing:0px;line-height:120%;opacity:1&quot;&gt;namespace&lt;/font&gt;&lt;/div&gt;" style="verticalAlign=bottom;align=center;overflow=width;vsdxID=6;fillColor=none;gradientColor=none;strokeColor=none;spacingTop=-3;spacingBottom=-3;spacingLeft=-3;spacingRight=-3;points=[];labelBackgroundColor=none;rounded=0;html=1;whiteSpace=wrap;container=0;" vertex="1" parent="1">
          <mxGeometry x="1151" y="599" width="130" height="54" as="geometry" />
        </mxCell>
        <mxCell id="wbwyxBnnDAt64wQGkXWY-9" style="vsdxID=5;fillColor=none;gradientColor=none;shape=stencil(vVPLEoIgFP0aljgEVuPa6j+YRGUica6U9vdhUKk4LWzG3X0cOPdcOIilTclrgShpDOiLaGVmSsQOiFJZlQKksRFiR8TSXIMoQN+qzOU175F9dNX3/obOnSP9CUoeLktIFL8KJ4flcLZN8NhtRJiDwxsf7VwhQHjAhniCDvNONhi04UbqakSuOBQCWy6cK16MWk0rRB2U/XRKVgMlSRwl+1nyhWI+s0+Xs4KYgNvPtlBKuJvVniX4En+9yfxWVpDx2yc2+Bosl0o5fw77U0PakjMzOz4B);strokeColor=#ff5958;spacingTop=-3;spacingBottom=-3;spacingLeft=-3;spacingRight=-3;points=[];labelBackgroundColor=none;rounded=0;html=1;whiteSpace=wrap;container=0;" vertex="1" parent="1">
          <mxGeometry x="1147.5" y="841" width="130" height="105.5" as="geometry" />
        </mxCell>
        <mxCell id="wbwyxBnnDAt64wQGkXWY-10" value="&lt;div style=&quot;font-size: 1px&quot;&gt;&lt;font style=&quot;font-size:22.58px;font-family:Arial;color:#000000;direction:ltr;letter-spacing:0px;line-height:120%;opacity:1&quot;&gt;PosrgreSQL&lt;br&gt;&lt;/font&gt;&lt;/div&gt;&lt;div style=&quot;font-size: 1px&quot;&gt;&lt;font style=&quot;font-size:22.58px;font-family:Arial;color:#000000;direction:ltr;letter-spacing:0px;line-height:120%;opacity:1&quot;&gt;(master)&lt;/font&gt;&lt;/div&gt;" style="verticalAlign=bottom;align=center;overflow=width;vsdxID=6;fillColor=none;gradientColor=none;strokeColor=none;spacingTop=-3;spacingBottom=-3;spacingLeft=-3;spacingRight=-3;points=[];labelBackgroundColor=none;rounded=0;html=1;whiteSpace=wrap;container=0;" vertex="1" parent="1">
          <mxGeometry x="1147.5" y="886" width="130" height="53.21" as="geometry" />
        </mxCell>
        <mxCell id="wbwyxBnnDAt64wQGkXWY-11" value="" style="shape=image;verticalLabelPosition=bottom;verticalAlign=top;imageAspect=0;aspect=fixed;image=data:image/svg+xml,PHN2ZyB4bWxucz0iaHR0cDovL3d3dy53My5vcmcvMjAwMC9zdmciIHdpZHRoPSIzMiIgaGVpZ2h0PSIzMiIgdmlld0JveD0iMCAwIDMyIDMyIiBmaWxsPSJub25lIj4mI3hhOzxwYXRoIGQ9Ik0wIDE2QzAgNy4xNjM0NCA3LjE2MzQ0IDAgMTYgMFYwQzI0LjgzNjYgMCAzMiA3LjE2MzQ0IDMyIDE2VjE2QzMyIDI0LjgzNjYgMjQuODM2NiAzMiAxNiAzMlYzMkM3LjE2MzQ0IDMyIDAgMjQuODM2NiAwIDE2VjE2WiIgZmlsbD0iIzUyODJGRiIvPiYjeGE7PHBhdGggZmlsbC1ydWxlPSJldmVub2RkIiBjbGlwLXJ1bGU9ImV2ZW5vZGQiIGQ9Ik0xMyA4SDE4QzIxLjMgOCAyNCAxMC43IDI0IDE0VjI0SDIwVjIwSDIyVjE5SDE4LjZDMTUuNSAxOSAxMyAxNi41IDEzIDEzLjRWOFpNMTkgMTdIMjFWMTVIMTlWMTdaTTEyIDkuMDk5OThWMTMuNEMxMiAxNi44IDE0LjYgMTkuNyAxOCAyMC4xVjIwLjZDMTggMjIgMTUuOCAyMy4xIDEzIDIzLjFDMTAuMiAyMy4xIDggMjIgOCAyMC42VjExLjZDOCAxMC4zIDkuNyA5LjI5OTk4IDEyIDkuMDk5OThaIiBmaWxsPSJ3aGl0ZSIvPiYjeGE7PC9zdmc+;container=0;" vertex="1" parent="1">
          <mxGeometry x="1192" y="845" width="36.26923076923077" height="36.26923076923077" as="geometry" />
        </mxCell>
        <mxCell id="wbwyxBnnDAt64wQGkXWY-12" value="" style="aspect=fixed;sketch=0;html=1;dashed=0;whitespace=wrap;verticalLabelPosition=bottom;verticalAlign=top;fillColor=#2875E2;strokeColor=#ffffff;points=[[0.005,0.63,0],[0.1,0.2,0],[0.9,0.2,0],[0.5,0,0],[0.995,0.63,0],[0.72,0.99,0],[0.5,1,0],[0.28,0.99,0]];shape=mxgraph.kubernetes.icon2;prIcon=group;container=0;" vertex="1" parent="1">
          <mxGeometry x="1385" y="291" width="50" height="48" as="geometry" />
        </mxCell>
        <mxCell id="wbwyxBnnDAt64wQGkXWY-13" style="vsdxID=5;fillColor=none;gradientColor=none;shape=stencil(vVPLEoIgFP0aljgEVuPa6j+YRGUica6U9vdhUKk4LWzG3X0cOPdcOIilTclrgShpDOiLaGVmSsQOiFJZlQKksRFiR8TSXIMoQN+qzOU175F9dNX3/obOnSP9CUoeLktIFL8KJ4flcLZN8NhtRJiDwxsf7VwhQHjAhniCDvNONhi04UbqakSuOBQCWy6cK16MWk0rRB2U/XRKVgMlSRwl+1nyhWI+s0+Xs4KYgNvPtlBKuJvVniX4En+9yfxWVpDx2yc2+Bosl0o5fw77U0PakjMzOz4B);strokeColor=#ff5958;spacingTop=-3;spacingBottom=-3;spacingLeft=-3;spacingRight=-3;points=[];labelBackgroundColor=none;rounded=0;html=1;whiteSpace=wrap;container=0;" vertex="1" parent="1">
          <mxGeometry x="1301" y="291" width="152" height="130" as="geometry" />
        </mxCell>
        <mxCell id="wbwyxBnnDAt64wQGkXWY-14" value="&lt;div style=&quot;font-size: 1px&quot;&gt;&lt;font style=&quot;font-size:22.58px;font-family:Arial;color:#000000;direction:ltr;letter-spacing:0px;line-height:120%;opacity:1&quot;&gt;Браузер&amp;nbsp;&lt;/font&gt;&lt;/div&gt;&lt;div style=&quot;font-size: 1px&quot;&gt;&lt;font style=&quot;font-size:22.58px;font-family:Arial;color:#000000;direction:ltr;letter-spacing:0px;line-height:120%;opacity:1&quot;&gt;пользователя&lt;/font&gt;&lt;/div&gt;" style="verticalAlign=bottom;align=center;overflow=width;vsdxID=6;fillColor=none;gradientColor=none;strokeColor=none;spacingTop=-3;spacingBottom=-3;spacingLeft=-3;spacingRight=-3;points=[];labelBackgroundColor=none;rounded=0;html=1;whiteSpace=wrap;container=0;" vertex="1" parent="1">
          <mxGeometry x="1301" y="348" width="152" height="53" as="geometry" />
        </mxCell>
        <mxCell id="wbwyxBnnDAt64wQGkXWY-15" value="" style="group" vertex="1" connectable="0" parent="1">
          <mxGeometry x="981" y="539" width="350" height="133.71" as="geometry" />
        </mxCell>
        <mxCell id="wbwyxBnnDAt64wQGkXWY-16" value="" style="shape=image;verticalLabelPosition=bottom;verticalAlign=top;imageAspect=0;aspect=fixed;image=data:image/svg+xml,PHN2ZyB4bWxucz0iaHR0cDovL3d3dy53My5vcmcvMjAwMC9zdmciIHdpZHRoPSIzMiIgaGVpZ2h0PSIzMiIgdmlld0JveD0iMCAwIDMyIDMyIiBmaWxsPSJub25lIj4mI3hhOzxwYXRoIGQ9Ik0wIDE2QzAgNy4xNjM0NCA3LjE2MzQ0IDAgMTYgMFYwQzI0LjgzNjYgMCAzMiA3LjE2MzQ0IDMyIDE2VjE2QzMyIDI0LjgzNjYgMjQuODM2NiAzMiAxNiAzMlYzMkM3LjE2MzQ0IDMyIDAgMjQuODM2NiAwIDE2VjE2WiIgZmlsbD0iIzUyODJGRiIvPiYjeGE7PHBhdGggZD0iTTExLjk5NSAyNEw3LjAwMDk4IDE3LjczOEw4Ljc4MTk4IDkuOTI3TDE2IDYuNDUzTDIzLjIxOCA5LjkyOEwyNC45OTkgMTcuNzM5TDIwLjAwNSAyNEgxMS45OTVaTTIwIDEzLjE5NkwxNS45OTkgMTAuODk5TDEyIDEzLjE5NlYxOC4xTDE2IDIwLjQwMUwyMCAxOC4xVjEzLjE5NlpNMTguNzggMTMuODk2SDE4Ljc4N0wxNiAxNS40OTlMMTMuMjE0IDEzLjg5NUgxMy4yMTlMMTUuOTk5IDEyLjI5OUwxOC43OCAxMy44OTZaIiBmaWxsPSJ3aGl0ZSIvPiYjeGE7PC9zdmc+;container=0;" vertex="1" parent="wbwyxBnnDAt64wQGkXWY-15">
          <mxGeometry x="19.99515151515152" y="86.14999999999996" width="27.69545454545455" height="27.69545454545455" as="geometry" />
        </mxCell>
        <mxCell id="wbwyxBnnDAt64wQGkXWY-17" value="&lt;div style=&quot;font-size: 1px&quot;&gt;&lt;font style=&quot;font-size:22.58px;font-family:Arial;color:#000000;direction:ltr;letter-spacing:0px;line-height:120%;opacity:1&quot;&gt;Kubernetes&lt;br&gt;&lt;/font&gt;&lt;/div&gt;&lt;div style=&quot;font-size: 1px&quot;&gt;&lt;font style=&quot;font-size:22.58px;font-family:Arial;color:#000000;direction:ltr;letter-spacing:0px;line-height:120%;opacity:1&quot;&gt;cluster 1&lt;/font&gt;&lt;/div&gt;" style="verticalAlign=middle;align=center;overflow=width;vsdxID=7;fillColor=none;gradientColor=none;shape=stencil(nZBLDoAgDERP0z3SIyjew0SURgSD+Lu9kMZoXLhwN9O+tukAlrNpJg1SzDH4QW/URgNYgZTkjA4UkwJUgGXng+6DX1zLfmoymdXo17xh5zmRJ6Q42BWCfc2oJfdAr+Yv+AP9Cb7OJ3H/2JG1HNGz/84klThPVCc=);strokeColor=none;points=[];labelBackgroundColor=none;rounded=0;html=1;whiteSpace=wrap;container=0;" vertex="1" parent="wbwyxBnnDAt64wQGkXWY-15">
          <mxGeometry x="-13.303030303030303" y="3" width="116.36363636363637" height="86.13999999999999" as="geometry" />
        </mxCell>
        <mxCell id="wbwyxBnnDAt64wQGkXWY-18" style="vsdxID=6;fillColor=none;gradientColor=none;shape=stencil(vVNdD4IgFP01POIQms1nq//BEpVF4q6U9u/DoFJxPdjm2/04cO65cBDL2oo3AlHSGtAX0cncVIgdEKWyrgRIYyPEjohlhQZRgr7VucsbPiCH6Krvww29O0eGE5Q8XJaSaPcqnByWw9k2wWNZRFMHhzc+SlwhQHhATDxBj3kvWwzacCN1PSFXHEqBLRcuFC8nrbYTognKfjol65GSNIn28SL5SjGf2efL2UBMwO1nWykl3M1mzxJ8ib/eZHkrG8j47RMbfA1WSKWcP8f9uSFtyZmZHZ8=);strokeColor=#5282ff;spacingTop=-3;spacingBottom=-3;spacingLeft=-3;spacingRight=-3;points=[];labelBackgroundColor=none;rounded=0;html=1;whiteSpace=wrap;container=0;" vertex="1" parent="wbwyxBnnDAt64wQGkXWY-15">
          <mxGeometry x="-20" width="370" height="133.71" as="geometry" />
        </mxCell>
        <mxCell id="wbwyxBnnDAt64wQGkXWY-19" value="&lt;div style=&quot;font-size: 1px&quot;&gt;&lt;font style=&quot;font-size:22.58px;font-family:Arial;color:#000000;direction:ltr;letter-spacing:0px;line-height:120%;opacity:1&quot;&gt;GSLB&lt;/font&gt;&lt;/div&gt;" style="verticalAlign=middle;align=center;overflow=width;vsdxID=5;fillColor=#e3ebff;gradientColor=none;shape=stencil(vVNBDsIgEHwNRwxCjHqu+g9iaUtEaBa09fdSwdpi9dBDb8vOwOwsGcQyW/FaIEqsA3MRjcxdhdgBUSp1JUA6XyF2RCwrDIgSzE3n4VzzjtlVV3PvXmjDPdLdoOQRTrvtavNqnAKXw9mDELkBIhDJaxrJZIy/YRLfbjFvpcVgHHfS6JGu4lAK7GVwoXg5gmwjRP3VjoMpqQcm9tPKs0z0Y6crWcBHqt0PN8tJspXFfmNKdpaBH8tYwML/VPjiE6dCKhXSOMTT+PlWiC47PgE=);strokeColor=none;spacingTop=-3;spacingBottom=-3;spacingLeft=-3;spacingRight=-3;points=[];labelBackgroundColor=none;rounded=0;html=1;whiteSpace=wrap;" vertex="1" parent="1">
          <mxGeometry x="1581.57" y="336" width="133" height="40" as="geometry" />
        </mxCell>
        <mxCell id="wbwyxBnnDAt64wQGkXWY-20" value="" style="shape=image;verticalLabelPosition=bottom;verticalAlign=top;imageAspect=0;aspect=fixed;image=data:image/svg+xml,PHN2ZyB4bWxucz0iaHR0cDovL3d3dy53My5vcmcvMjAwMC9zdmciIGZpbGw9Im5vbmUiIHZpZXdCb3g9IjAgMCAzMiAzMiIgaGVpZ2h0PSIzMiIgd2lkdGg9IjMyIj4mI3hhOzxyZWN0IGZpbGw9IiM1MjgyRkYiIHJ4PSIxNiIgaGVpZ2h0PSIzMiIgd2lkdGg9IjMyIi8+JiN4YTs8cGF0aCBmaWxsPSJ3aGl0ZSIgZD0iTTggMjAuMDAyVjExSDEwLjE1QzExLjE3NSAxMSAxMS45MDcgMTEuMjI4IDEyLjM0MyAxMS42ODVDMTIuNzgxIDEyLjE0MyAxMyAxMi45MDcgMTMgMTMuOTc4VjE2LjQ5OEMxMy4wMDQgMTcuODUyIDEyLjgxMiAxOC43NzMgMTIuNDI1IDE5LjI2NEMxMi4wNCAxOS43NTQgMTEuMzExIDIwLjAwMSAxMC4yNCAyMC4wMDFMOCAyMC4wMDJaTTE0IDIwLjAwMlYxMUgxNkwxNy42OTIgMTcuNTk3VjExSDE5VjIwLjAwMUgxN0wxNS4zMSAxMy4zMzlWMjAuMDAxTDE0IDIwLjAwMlpNMjAuNDU1IDE5LjQxNUMyMC4xNTIgMTkuMDI0IDIwIDE4LjM4NiAyMCAxNy41MDRWMTcuMTYySDIxLjI4OFYxNy40MjJDMjEuMjgxIDE3Ljg0NCAyMS4zMzggMTguMTYgMjEuNDU4IDE4LjM3QzIxLjU3NiAxOC41ODEgMjEuNzU4IDE4LjY4NiAyMi4wMDEgMTguNjg2QzIyLjEwNzMgMTguNjkxNyAyMi4yMTMgMTguNjY4MSAyMi4zMDY4IDE4LjYxNzhDMjIuNDAwNiAxOC41Njc2IDIyLjQ3ODkgMTguNDkyNiAyMi41MzMgMTguNDAxQzIyLjY1MSAxOC4yMTEgMjIuNzA4IDE3LjkyNSAyMi43MDggMTcuNTQxQzIyLjcwOCAxNy4yNTYgMjIuNjM4IDE3LjAxMSAyMi40OTMgMTYuODAzQzIyLjM1MiAxNi41OTcgMjIuMTA0IDE2LjM3OCAyMS43NDggMTYuMTQ3QzIxLjEyOCAxNS43NDYgMjAuNjkzIDE1LjM1MyAyMC40NDcgMTQuOTYzQzIwLjE5OSAxNC41OCAyMC4wNzUgMTQuMTAzIDIwLjA3NSAxMy41MzNDMjAuMDc1IDEyLjY4NyAyMC4yNDEgMTIuMDUzIDIwLjU3MyAxMS42MzJDMjAuOTA3IDExLjIxMSAyMS40MDcgMTEgMjIuMDc1IDExQzIyLjc2MSAxMSAyMy4yNDUgMTEuMTk2IDIzLjUyOCAxMS41ODhDMjMuNzk1IDExLjk2IDIzLjkyNCAxMi41NTggMjMuOTIxIDEzLjM4NEwyMy45MjMgMTMuNTc2VjEzLjgzNkgyMi42MzVWMTMuNTc2QzIyLjY0MSAxMy4xMTQgMjIuNTk5IDEyLjc4OCAyMi41MDggMTIuNTk3QzIyLjQxOCAxMi40MDggMjIuMjYgMTIuMzEzIDIyLjAzNSAxMi4zMTNDMjEuOTM1NCAxMi4zMDc0IDIxLjgzNjEgMTIuMzI4OCAyMS43NDc3IDEyLjM3NTJDMjEuNjU5MyAxMi40MjE1IDIxLjU4NTEgMTIuNDkwOSAyMS41MzMgMTIuNTc2QzIxLjQyMSAxMi43NTIgMjEuMzY3IDEzLjAxNSAyMS4zNjcgMTMuMzY2QzIxLjM2NyAxMy42MzggMjEuNDMyIDEzLjg3MSAyMS41NjUgMTQuMDY2QzIxLjY5MyAxNC4yNiAyMS45MjMgMTQuNDYyIDIyLjI1MiAxNC42NzJDMjIuODk5IDE1LjA5NCAyMy4zNTIgMTUuNTA1IDIzLjYxMSAxNS45MDVDMjMuODcxIDE2LjMwNiAyNCAxNi43OTcgMjQgMTcuMzhDMjQgMTguMjU0IDIzLjgzMyAxOC45MSAyMy41MDEgMTkuMzQ1QzIzLjE2OCAxOS43ODEgMjIuNjY4IDE5Ljk5OSAyMiAxOS45OTlDMjEuMjcyIDE5Ljk5OSAyMC43NTYgMTkuODA0IDIwLjQ1NSAxOS40MTVaTTExLjEgMTguMjk1QzExLjI3NiAxOC4wNTggMTEuMzY1IDE3LjYwMiAxMS4zNjUgMTYuOTI2VjEzLjk1NEMxMS4zNjUgMTMuMzQ0IDExLjI2NyAxMi45MjUgMTEuMDY4IDEyLjY5NkMxMC44NzEgMTIuNDY2IDEwLjUwOCAxMi4zNTIgOS45OCAxMi4zNTJIOS42MzZWMTguNjQ4SDEwLjA2NkMxMC41NzcgMTguNjQ4IDEwLjkyMyAxOC41MyAxMS4xIDE4LjI5NlYxOC4yOTVaIi8+JiN4YTs8L3N2Zz4=;" vertex="1" parent="1">
          <mxGeometry x="1583.57" y="341" width="32" height="32" as="geometry" />
        </mxCell>
        <mxCell id="wbwyxBnnDAt64wQGkXWY-21" value="" style="shape=image;verticalLabelPosition=bottom;verticalAlign=top;imageAspect=0;aspect=fixed;image=data:image/svg+xml,PHN2ZyB4bWxucz0iaHR0cDovL3d3dy53My5vcmcvMjAwMC9zdmciIHdpZHRoPSIzMiIgaGVpZ2h0PSIzMiIgdmlld0JveD0iMCAwIDMyIDMyIiBmaWxsPSJub25lIj4mI3hhOzxwYXRoIGQ9Ik0wIDE2QzAgNy4xNjM0NCA3LjE2MzQ0IDAgMTYgMFYwQzI0LjgzNjYgMCAzMiA3LjE2MzQ0IDMyIDE2VjE2QzMyIDI0LjgzNjYgMjQuODM2NiAzMiAxNiAzMlYzMkM3LjE2MzQ0IDMyIDAgMjQuODM2NiAwIDE2VjE2WiIgZmlsbD0iIzUyODJGRiIvPiYjeGE7PHBhdGggZD0iTTE3IDE3SDE5LjNDMTkuNyAxNy42IDIwLjMgMTggMjEgMThDMjIuMSAxOCAyMyAxNy4xIDIzIDE2QzIzIDE0LjkgMjIuMSAxNCAyMSAxNEMyMC4zIDE0IDE5LjYgMTQuNCAxOS4zIDE1SDE3VjExSDE5LjNDMTkuNyAxMS42IDIwLjMgMTIgMjEgMTJDMjIuMSAxMiAyMyAxMS4xIDIzIDEwQzIzIDguOSAyMi4xIDggMjEgOEMyMC4zIDggMTkuNiA4LjQgMTkuMyA5SDE3QzE1LjkgOSAxNSA5LjkgMTUgMTFWMTUuM0wxMCAxMlYxNUg3VjE3SDEwVjIwTDE1IDE2LjdWMjFDMTUgMjIuMSAxNS45IDIzIDE3IDIzSDE5LjNDMTkuNyAyMy42IDIwLjMgMjQgMjEgMjRDMjIuMSAyNCAyMyAyMy4xIDIzIDIyQzIzIDIwLjkgMjIuMSAyMCAyMSAyMEMyMC4zIDIwIDE5LjYgMjAuNCAxOS4zIDIxSDE3VjE3WiIgZmlsbD0id2hpdGUiLz4mI3hhOzwvc3ZnPg==;" vertex="1" parent="1">
          <mxGeometry x="1679.57" y="341" width="32" height="32" as="geometry" />
        </mxCell>
        <mxCell id="wbwyxBnnDAt64wQGkXWY-22" value="" style="vsdxID=5;fillColor=none;gradientColor=none;shape=stencil(vVPLEoIgFP0aljgEVuPa6j+YRGUica6U9vdhUKk4LWzG3X0cOPdcOIilTclrgShpDOiLaGVmSsQOiFJZlQKksRFiR8TSXIMoQN+qzOU175F9dNX3/obOnSP9CUoeLktIFL8KJ4flcLZN8NhtRJiDwxsf7VwhQHjAhniCDvNONhi04UbqakSuOBQCWy6cK16MWk0rRB2U/XRKVgMlSRwl+1nyhWI+s0+Xs4KYgNvPtlBKuJvVniX4En+9yfxWVpDx2yc2+Bosl0o5fw77U0PakjMzOz4B);strokeColor=#ff5958;spacingTop=-3;spacingBottom=-3;spacingLeft=-3;spacingRight=-3;points=[];labelBackgroundColor=none;rounded=0;html=1;whiteSpace=wrap;container=0;" vertex="1" parent="1">
          <mxGeometry x="1154" y="724" width="117" height="86" as="geometry" />
        </mxCell>
        <mxCell id="wbwyxBnnDAt64wQGkXWY-23" value="" style="shape=image;verticalLabelPosition=bottom;verticalAlign=top;imageAspect=0;aspect=fixed;image=data:image/svg+xml,PHN2ZyB4bWxucz0iaHR0cDovL3d3dy53My5vcmcvMjAwMC9zdmciIHdpZHRoPSIzMiIgaGVpZ2h0PSIzMiIgdmlld0JveD0iMCAwIDMyIDMyIiBmaWxsPSJub25lIj4mI3hhOzxwYXRoIGQ9Ik0wIDE2QzAgNy4xNjM0NCA3LjE2MzQ0IDAgMTYgMFYwQzI0LjgzNjYgMCAzMiA3LjE2MzQ0IDMyIDE2VjE2QzMyIDI0LjgzNjYgMjQuODM2NiAzMiAxNiAzMlYzMkM3LjE2MzQ0IDMyIDAgMjQuODM2NiAwIDE2VjE2WiIgZmlsbD0iIzUyODJGRiIvPiYjeGE7PHBhdGggZD0iTTE3IDE3SDE5LjNDMTkuNyAxNy42IDIwLjMgMTggMjEgMThDMjIuMSAxOCAyMyAxNy4xIDIzIDE2QzIzIDE0LjkgMjIuMSAxNCAyMSAxNEMyMC4zIDE0IDE5LjYgMTQuNCAxOS4zIDE1SDE3VjExSDE5LjNDMTkuNyAxMS42IDIwLjMgMTIgMjEgMTJDMjIuMSAxMiAyMyAxMS4xIDIzIDEwQzIzIDguOSAyMi4xIDggMjEgOEMyMC4zIDggMTkuNiA4LjQgMTkuMyA5SDE3QzE1LjkgOSAxNSA5LjkgMTUgMTFWMTUuM0wxMCAxMlYxNUg3VjE3SDEwVjIwTDE1IDE2LjdWMjFDMTUgMjIuMSAxNS45IDIzIDE3IDIzSDE5LjNDMTkuNyAyMy42IDIwLjMgMjQgMjEgMjRDMjIuMSAyNCAyMyAyMy4xIDIzIDIyQzIzIDIwLjkgMjIuMSAyMCAyMSAyMEMyMC4zIDIwIDE5LjYgMjAuNCAxOS4zIDIxSDE3VjE3WiIgZmlsbD0id2hpdGUiLz4mI3hhOzwvc3ZnPg==;" vertex="1" parent="1">
          <mxGeometry x="1200" y="729" width="32" height="32" as="geometry" />
        </mxCell>
        <mxCell id="wbwyxBnnDAt64wQGkXWY-24" value="&lt;div&gt;&lt;p style=&quot;text-align: left; margin: 0px; text-indent: 0px; vertical-align: middle; direction: ltr;&quot;&gt;&lt;font style=&quot;font-family: Arial; color: rgb(0, 0, 0); direction: ltr; letter-spacing: 0px; line-height: 120%; opacity: 1;&quot;&gt;&lt;font style=&quot;font-size: 18px;&quot;&gt;HAProxy&lt;/font&gt;&lt;br&gt;&lt;/font&gt;&lt;/p&gt;&lt;/div&gt;" style="verticalAlign=middle;align=left;overflow=width;vsdxID=6;fillColor=none;gradientColor=none;fillOpacity=85;shape=stencil(pX3bsiPHsd3X8LWjrlmZj45j+z8UFnWoOLKooChb/nuvVXuAbmQ2uhqbehDJGRQ6UZ2Xlfef6n/885c//ePnn0r65++//fpfP//fv/75919+qv/9p1L++vdffv7tr7/j336q/+On+h9/+fW3n//zt1//9fc/f/33P/7ET/Lf/vev/4ff8O+vc2nTykMl/b8ffzD/639+ffZvf/374bO6jfztz1bdynj/+bFV/UOfb1sv7z9etix/5OMLasItfvr5i5u8/uzr28xpG+X1d+pm7787fh5/0vvFgbxp+4MH2pZfDvyvf/329Rvyjw+ULZmptlFzaQ8u2v9yVJNkKm10S+nHl/+7PP++mmb8r7dRHhdXnsSIyqjaTK39eMP/rodv/vH5+vxtdri99N/OqK1bkmIpg9hh3VGbwAZilkYuUrIjtW5NutYMmqTiJ9srtbZZSTm3YvieYebprZu1V3p5YkUuGL9rH1Yk5YT7c/f77qEPmvuWU7OhqVSr3V0vWKFYw/neUzdHbt+6uuvN2+gremVLvaQEeq33EZjBcIPDtEjF/Zk6amVryVrNFe9HsqO2gRl0jIGL0FqeN/EkWDbpjmC5ccGyKa6wgs/KeLL+4y9tAyNYbpbxc0ZK/nrHlsBGZCTwTEqpvNJcMt5e6wb2LmZt5/56OP9KMzTdkuR3T/3x91C2qYpmqVmlxDtW/E7wjNYk8nwHT5Jt69aLmuHwD537cseO3gqFoes7rq2LQgng3dZXaiv0Sx2CVyoQ9XbGwtahPfgOwDqv1NaOXzP4atoQSfGC+9YcU9Sx5bXQgQtBUM2tFne7NBUGVZXByVK8Omtby0nAMPgCUOtvF4fVRscX4wX80MNHDaGe2Bdz8E6htZY0NWk9ib/c0+ftCg2Kzow/R9IIlHYRbQJBxPfHm4X6beFmbXm1ZYPCUUulayviqB1baQ2iVvE2zVMLIw9ZAiOZtn7QhA+CqTzI2k0UghsJzpv52wV3OHqDNXye+Z59/qOfd3ghe3BBYPQCXMKF4wikGeLVMpSC0xQK2astNzAH7HdKNdx5ylQzyit39w3aqT7wFjVRH3tuLpvnD/zJUlWArQbUgXTIe+lBt1FbaC5ZR6/goRRtNCSzNhlGwoOySLXaMKmQzCh8Y/zk2ePHhVyqippJ5oAJaQ5OnD9wVxUDOno0ge5KFlUFcRftMjR9eWrxXa9lT20JzByIhU2XBFmvA3ZfA5jAK5VCy4oXKuINR4f1x9E0tFpzwgeTowqQ16jCoYy8bcZZeSUXjJvHmt6TRz54F8QCLYATKtRw3vmvHH4sfqSUVLS3oC9gRfFOuvQMrUHIEk1H9gBItrK847ZBF0NPjaSQuMDAtBC4+UEVhn+mwMFgqA6B/NLKHrHVTajIWwHrPwzp0XwURzA+vzYfgCZCJTAmSnEq4vyRu37Q2qHGMn5rrgESE702Yv+k0PfFPMYEy3oIDy2+xD/QSgU2AiYWsMA7HDDPWiBVHQB+eCxxqgzLk6HMCCZyF2iXYD3UkepU77n5WKlrp991S80faPl4IFwGj9CFImI5wa+4ipEEN1WSRP2u+PYBFQWGpSLy+JXwaQAcw6Y2wMX9fH1+f3ZynZca06D3INCEjql56cA7AL0Z/hf+PrqLeEe9KbhtFPzTuYsLBwxg3GPBGw5YAY+C921kKOlUgjwvHLAC8erQttZr6eJuN0MF1qLQFBMrmlPyOKvmb3eTlQmdsZKaVCvYOOUo0YKXprjK2nuBGrLiSIYGA0fQKwfLeJoNHgAQnGjP1AjJX3Lb4wf7H6XlLZ8+c/dn4ALjl4xGww4hDQQLZHoMAlYwledimLUKDIPv0ZEfHHcg+MmEB0u68nNpvqpCawJtFHU3XKnjOzxVvGKIZTBNeLEDLyhD09BORNMPJ1ogB/Ai8HscUMHh7LiCuHnNxvCPYJ/x4ro5vxxYv9aMZ8EflJyi1EHhDmAC/lQYJ0fslUtzInM3XBpIOeRJ4XvBcGcPUi5dGrAnpRBKCyBmRFYYm/QKqYOfAG/SaTNQ5iw+EFxeWlDcXu8KJxUKwIc8wEuQQpDSpFrUvieqe/fDoW/AQTZUvd08mIkDG3vfyxmjtW1xxsgAbT80RjiCnzogEVK0BdUDSbYJaKFMhX8/wusDHAMeg7AXHw08R6e7JXrosQ8AMRgNnktveH/JhvdGTwH4bohgEDt1O/RAeVrGW77GmVTc8DUohp1uTwZLFO/pX/kaOAk4ZFUA4VJ2nMbf2aSAdU2sOBSMkxYdjbpC7lBSlbiiJrryI7pxsOMGZF8LFLpGm9kHwMiAdzTSziUvzgZel+YGhV4DKuF5J8eMqi1V+rvH7syCW4f6gFYHUwQwNX8zkABYSSx4G4ClNUmGQutiI16yh1HAwctLxlvttMYDGLw5fmC4lGoSOgl3JBGYkJkS9WhTRje9DaI3AVEk2MqZ/+YvOfLwPLKWuHO5yYvHliuJvRsijkqC97yMaZ9qpYO/QX8PuroZ/bmo0s5V4kGRAN3A7sqA+Jl5N/Sghe/r+rXqftX1NW9PEf1xQLdcjgdenwAlUKo/MF4O+GuszBONbFBBxcQrhLwxJ1NbAmoiuzpQWpl7YMQC4pPpzXvD3phHGuAsKJ3Hlz/uEIeLD1vL44/ev3caHMgQFEGG9xojq6CGMWsgFa9vcZIhIcZOhWHZYB0uMZNFam9gJvBhHgZhToDBn2AmqNOWVQFDIJVOooiXJBukFX6COXEq8pD3F7y0pJRXD3rhBIJezwdlo/s3+DjJxUdHSt8sw61vEKjmWAD3Rl0IEYOzJRb9v/4IT7+48EuNdfbIx99lnAdutkzPcERXCkC+MWqNC+45pgOIOOFCtWaw61m8vsLxGB6RFR7FqQ4fCq8T5rG6kORXggIQAVIGto5QX4DQGA3AB4J6LdNtKVLV8JN8NId8FDOGsvRMIEi5Q/LHKCNo10RPSqffMuj7eXIVOAK2oNXWnzD5bjwAcuaswY14wBRtSLQxsZd2LrsZD6BOaVbghcGVbT1GXPD3sAbWcwP/5xATgCrL3uyWx++4oBov4ovaXMczkr/b3AE3E6quKp0Nc0JH3Qy93XtW2ihHcCcY+8qUJT7B696yZSd14HrxSsJZl7Qb6qdFO4D509eiicaj19ayE9M8Nv4xwGbvRVOAx3wpiRi44f+H09UMlwCnjlFxMXDXwg9MwUDnG1qQfITLaUXhUycfoiFcrczpFctwLYNegZs7mCBhiMfjeb5OrVDozOdANwW0aY9alyNyG8uwEt7ahDnAv0kc17995i6nEAmF4wLArzFEQ+QGpw56UDvAbAyFjZBAmEnlFc1jq0JACMqgv2MoDLoHLkoGbCfzB7uYB5AqlDcwf4puSNoGc7110I/RE3Xo8wcwN3V5ze+eekjZJUY/pXbA5OdTy+EXZ6sNwKOfBMI0V1is0fe89vGKY8Ju6TSRHMWLmyFbOc/XMawHLi/5THvjjRNnGG/Qx8EunWjbnPa+5UNTcmC9lNFET+uVC015VXhZoBaXdxKzg2EVJTCFPXek4mzzQKmuuZcZVt4KUygjndwtFH+CdgCj9HywxzvFVkHvaJrovwQQmljPNNO3ADht91x2U5PcDTun4Exzrx0J53mUTV4PLCrUWJiQ/+ABvKt2cUB2yf3mgUU9IZjF1RV8fGBFUrzWjw8srnV9wL1p255FJk99eB1P5BEBA8P4Zmm+mmyR3MLhRmQOlxDMHWHLZWarpRBlX2a2GjEIpFVBc45A9jKx1eBJwGfpkNQ6mgPeCyDbytacQb8BZBvLGQF48OOfquMmiG2AJwNIgAZKT4o2L7NaOOzdsDtZrdY3+CWARCxX9AB2kdHCWYUzSb9FNQDYRUZrHnZq8EZG6/yZNzNaODyIpifj5lh48z6dhZPtpOxmZcYb8xzwawbx70kg/DKdhTdKxKIs3ZTqo8tXuSwykjfi61xWI7uULgVIRtQ5uKtcFg4TVMGhAUIKofCruMyJmN2IyzTGSfFdMLG+2vgyKtOY7TCGt2t/xpdupbFackTeyGFBV1a8YNwJZKz593+RwzrX0DdyWEdrcDuuecOEvNoc3GINFRjXNodHoPdYENx6+zCBhcN4L0ovE7BLntx3K4fVUqgQv5HDAoNVFucYoB5s4f7IO2ksHCb8hq8Bh8NXgF6h7zNhuAG/KX1j8OdneLY+SnmFvxuTOrCgYKpchif1KoWFk+YT5jdSWI0RZUguU22pOAV+mb/CyW5wOotB7IGuPROs8lc4Hw3OMn319qk301fz9xbwrMG7YRTI155dZbB4x7FYbpnB4kuFcw5bKHBVfCXXIoM1eakAxbGSPXlqF+mrE/69k746lZebqau3gnoze3WiHu5kr96qpJsJrHN9eDN7ddS/t7X8DaXttPzw6a6F79LgEn7UFhUPMKJ6UdndQ+X44gm97lG5bx5Y+JC9+AKQjw9kgDO5vCWpnzwhvriPD6xe3PrAKy/hxfVXXz5t6eo1lL1+7PzzXiBxojZjCgyQ0Cc8GMtnWT1A+Iw4O3uNsyyzhRcENCkeXABOArxZrn0UCY4XftlwdhAGd4UMcaq1ypAXzWA3D2KFVgFKvLKLLFqVDqUFOwcwnqT4qnHmD6sw+iRS9/jWk+DkOwjkhoa2bZYVABPAQmRP7PkDy/NsZSwt1dR8wIC/E+aR9VrqFXO81aVXAEnpBJBVWVb9SiVsKRyywayDKR1oD4UUrwQm3lpmO12w1OAhpqYaK2/gpvtrxfHqbPUry56p5EOu7B6X8wRznoX9RepNOy6z02PPDDDAeHsnzZilbAlW1LJPyEAEAODgqRqgTIk/zwJ6eilMeMc1cFGANfCNTy91fx9FAU86/orA1MdZwaaJ3WIDL3LQl/NS2QcsK2wvoCtuwwERnK6O3mf50oVUJqZi4eFaU8U/zYP+Nw99kJy3lLRBiwjE0uf8N7wwSHsuuA72PHqKsw+8P1vBLtUIEAQ7C4XNfl7pQR5ZFE6Pium5FsjtUHtsW7QWstIwGKlZZuBsFv+2QK6vBluy+9oIuK78l8+O/OhEPbcYe1X3Nz/fH2DkPDC7PQvNv/d5sxfvKDbb1/aHPr+gJ/2BD1/f5OLDsdfuFV9ZekHboeiqbtldTF4oSTZEw5zDGVAVX8FnsOe0Dglu6KjV15WxpFPpjBW27rzKhMmWKCxwiBkQdRqS/TMOlNt4uYvzMrjMMCDMB4CHdKcjjUVLbNxMig9q6J2HvjJ4ITDKVNyOWtvs+D8XgLXQtwkpX9Cq9LBt0EJYVh/dfvO88jjLZmJgmSLSsw/F6zZYdJlEARXcxY7QSoAXUVZOsGyzeRcf7i37eh0wAfxB2PEG0yTiSIX7Zx100ltk+YMzPWBYuAk2Erznnn0ETjZ3rdrX/f3vnvi497xNBqDdGI/W1p1aZhoBn0BUftZ3/PjLgcuTzHZSeJM13KsDgqM9lOIVDySOa+iVkSEvXANaCQiDdWasg/IcAKPKhpJEDnIu72CGs/QO8J7Mt4nZps7WjLzOFWR60cA0wDop+YT/+fP2ZIu0JrDWyuBeaHLEzwRm7Ww3hEm3kwa8IvFmbzRxK5yTQljfx6HtLz/fZWVBkfKxwxlzqkmwABRBLypOcWmizoMRL+xL9zX+NVRUgGXbjQ7HkwfmnefrgBbtANxZI6kDeqQpW3zd1aowrlor2AtA3Fft1tCfi8+P67jH2DuQT4/EnzYYcVJhdCZ39T8NmLaDfAis7dNTdiVXgfzgH7fINQYDoZyCMqOF1TGNBmmkklrxDGSqCat/E4uwvEbuGxE9/DL8EEnuNdArg4x0+l/D98kYy7OkZZAqLDwKtsPxNz+/7OFNHCXAZBbcl6CRzx94y9D1TZgUFYGe78Ozdw6VctbWdVk0y/DADWwALeeQNTEEBDQNYG+mT6P20DoH2gCTOz1nDGwYm7nhqD2Ds8d+WJ9zTjEYGfthF5DqFYMN3z+r5TEi4xyC5V3/vjnw0XwEqCMgALxL/m3OoVc7swxvlmvV4YutBpCCjMJYL9t1wvV5qACludRkNAWDTY6lCjs7vd6FMjPgBNaVyvAvm7+F8xoSAGF1sIZaX2HUO5PnJQpRtBEr62s0AQz5cFpD7x4onD9wt7+d3XTCKE1z7j9+JBsZobVw68XlITRE9XGtwdk7QQqcTAMRGUQD4VrxrcYupi49eQgGFh2NOQpgRSWcCAaNUiTUG+JHWI3QU+7Y9dRIrETCuTFtk1eRWDhJ+VAm/80DWh9x4HdCJ1sF+CIss9mm6dDZ/IIMxAL/B659kDuZaaNBvdWbi34pK+tw4RnKO4njD5z0Q8O0PMzuheBdDYnCF2Rjjh48W8PUjLF9QQ9OPhoeQnAAVwccZmF7dsyBk344wnhWwV6QCjUyGGttLadSXkkdcyYGu/1hE4JHCdYCj7LIRrKvpYe8ZqaJGvVd8bNTNFQKjnpjjoMy7mMw+5y34IoOBqN2c04YS7v8rbLIA45baqyPjLNTCHvxMtowOCHeS8uHXE59fj4tQa/OKvnEqTTmq04gImMAopAiE494DR5l58y4Dj3g8AuFqwHA0YRXn1Zl1Xv0J4KnHpq/3FChlQDHA9dBF7aXaTiw6gzmD+xsncg+wDpPw3eE012eQ+MO7xrOEYAjbGx50nkwBhS8WdKTPKDSUDQ+ZJ3xYHuC0N8aTIZ7uyVMh7DgOUFOatBMrDUFKdBKAE1OMw1WfVVl0hr+b2w+fzDqk1i7MS+JE5wGXVxjKDfUCMMhB8iCd0DvJgxfHIDHAu/RCrjTyRDUWp/Zjp7qsy/soJx86xf07no4DsNMQqjac02OC/AFVpmWgcf6TL8cSG2cREUBMh/uUk5VyXgvg3XkkdTk8AucvryMdg1W6mhWoPbhKSWO7wR+LYlvG+AbAephgu+rDsPhFwUXAEcwCkLfOXCBH2IIiBx8ABdgfY1rLsKxx0fcOzB8Ot6RdD6hEL8RZo1ZOA+qWTI2p6lIjGfIbA82plKGz2vh5gx/2WeJvXe4ZU891+fH63J4HscNGTAzay6KN+wkplov4MYSIppwAyFYStDXxMFpnOz8H1jy4DXs3UG+AJaf92ppBbJWby3gvo8PrMzG+sArFC3dDxlWe2ldC4wtvg1M7THj6g3n4chQAK0GY1M9poA3nMhYDIwnfYCjQ+tjI8DhsNXaawAV8N77LIqejevP4GZ9/jinZexZenDRjtK32hmehDUZvsUYL4ytmgzUwMcIw0c59gZqRucQUGcXFyF1pphfiV2H1DmkAABwusLqG4wXIXVm+GC/8Usl20lEHU4eAHDnyCLfApt9lJoh9RsDZFh2nefkuONwg0NYhDUUdPyZaXfUsrhP2aAsJSghxtQbOyHV8AXeo+NQumBr1i2wpw/c3QthzSCnm6rXl2W2CEGRDqgi85aGraqcM0RbFS42harIO+4F060cV1g7ixc+wXElz3l9lW/c8wC8BZ3zVnEHfs5ECZHUcSOhX2YfOfMNSRlg8BwwmOFlS1qXIaEvjRn/xKAZY6Q+/nAV/4+CdSf+PwdYsQcawEdPXIv38X/qj0qFpV/d3B5s0C9RDlKCfmndQU5mlr0jVB8o9IJaOO91tMF5XeZbMRjXYdeCMM1fQ3i0cEizwi9rg4DNEQt1b2zEgDOkYSoCjLGj1R71TG+BUd9eM9t0uC+tR9/al78JJj+plRwscBPCV0hU8Uqug2tYDYx3qb5QErIFo8J+DXgHPhNXnIobj77/S5ahGRPCeuFkRZ81+jIsUKpFY5N/Y5Noq3Bz2Bkb3eeraCBZ3NN7Ix7I6TgwHawg5jzhKJBXAUFIs3LiY4FTBomNbM4sjrEPVVsOvcMlpg/HSy/c59OWwHuZFT8NOuY5GuSg6WAggV8ZMWTyxXtWmWVo8ISFX+4HLuXQbsQk1/J63z1zB92Fc4mmljkZDzX1g3JIt6+ttwzkCUQu7DiR4cWyxJz3eugotTNcQPqt+9SLQzIIDmlhHXVhzOBEN5fKBD08hY+SQSyQdDrkTjZoSgvtc+Oo8TjU7DohREEFVgCEA77x0xQJKdknx9BRsRbUQvBcrd1gXLBLhk9ic8ZsZAW8H+jXylrGGqvZqDMZ6QQvAVL4+2WXIs0iM+PdF3sf8X3d2c7bk6CjV06B8yJCRe/CT6n1Wa/2zc8v6qfSLrHfPLCqoLJN2h87sCDp5FI/PnB9qzcOuHbhuo3XOIWugozzCLULs1++PQO2vxJ0wC1kl+0r17OBiJCVmwQK12z40B0zDvANMwNUXgfisM+FMly+EFMOnzeBH1kZv/SgjxqZQ3ZgIZKv/+Xsqi4zc8+qoEjsFULl+gNvvm9A1Ko4NkOwHK70CURlj6TAkOL/cLfecJeNXVulQr3OGVOO2FDLO25kxFuaQ+A5bY0F0o7WwXpR4UQroJDk1R+7ZRrnhTCC5wGqcuKHwFkdPUxLaM+2gpcw4+pez5/3YFnATdbQ8JG99EBpA8zOA0a9WFTUzbQyADkrAwKtzxE5u9E+dkW8axJVbsCBDI3Ro9Vmq1xmwGvsJfLlefR9L75x5AmLP9SGz4I9O2x3SnUJjtkDLISD7MLyMSBS0hqQhQDudN/LDPGgfYNnD6ea0Nhb7OvAyol0rSMrHB9RWXDGUemjBXqvIivQIkyz1wHvuXjkdlWrWNsm/mZvFCviWBKWKcL5f8ZEj8WKAziJAxl2DnmSeqqd97BKZnB3NsDVoLQOtmAXrjC6LdjxlQFxFqf72SVri9M5vIxNnJnddU58LwLdOMi+RRYJ0aEMzYAQ4MGLVOjMnn1Oo/Z99sZBgNd8llhBRQvWqnPcibph4gwE46d4amH+WLfUv5wER+ol6D6RiDugm3IotTeAJShyL8OXiHu2kHEYUWckype24Wey65brqYjLg7YR7yHUdRsr29LxLIXugwx7AWajIDuXMwt3fBC3sk2GQYHSWGdkXpHDBNAfhrPYIMt+GBwPB7GoN/T4+TP3nCHXjVmCKm++SmC24LOFlUWOvgNtsOqHKZrWgF28xsHlxuKcZasLXyfsnzLQPbw2nxVPNuc50EOLupztUYBK1Wc3B6eQsJadSziCeJ1gpLbebXQuJfnqgeVKMg/BjVjV9V4T8FKXLPBO/ezxDbCqGmuxR/M28lTp7cENzt2oXC7Wa6TWF4rc0ONrtezagV8/vXBMWvMbD8OBs1k0c20SW6x8yeV5QccDtHE9XmIxg+Kd9qD2ByskO6d0Azf428Ph6qPL5ZGbvYCYwhyBZBYkjBNHA3qWI3WyhOmabWyca8pBNCPUrbDFjE3tLPQezl63cVZXvkwu4FiHQ5Qae15CxX5nrwwAPSD9c2/IgVL+isa5ssmnbFiO3geriea43tBXP0LqGOy/rAc6f+TB2awV3p3C2EgOxDL1n6b71h2xSuSeGefkQJZ4r36QnN5YqtWmz8N8V+5eLynsW+fuPNWw3ofvn80+EPIGCBm4VTkHqnNGcufSxsCtfqGWtscEg0taWWkLlrLBeJufr0oDh3dIimWvmdsJruzUZJuupBIJnkl7ONRtr4U5cIFXTTcKCHBMGzQBh3GG1A2MN6MGfJe9SGRZQBBr9ImShymAjsAMmYpkL+w/kBqq2m8M2uUxWKAKKeDOiVdSrREXZdYCsVo3MoKwJgrgnktLXmklGjNO/IIJgycS77V4qDpuTAYh9zDH0pjXlOT1Fn0bYAJuegPfPsK6BzXLJqPZMTVOXDi4Sz2xv0FG9t1xUO5+PKqLtp31R7+anEV47kMDtfi0M37VD2bX15zeif1zoy3CgRP7B+s+OGwb/loN6IFfkLk6UllZ4yMsfWt4rZnzSKov7mYRWeYUXoNdCTOHItbB59eKum+aWYfFZrBQacxMhLC0rEnKPsQCk2McfjI4pLc4UjlDSIXje+rIYfwrWdC7rDf259LGJ1bsjem9OGIzh62ydAzIO/TM4yRFEP5z20cr7ZErdjHgVktL4u9VwkAAlh7eITU+cA+zsYErwytKWcOY2sZNepUQUg5LwA554NHY1QQZ9rP8+U68FyHrIVmd5QDGLQ65eJMCZKFFgGhb58CEwAO4N2417JLFU0ogyFFOZIIwL66FxnMXVD9TJEF8F4H4z+V9fWClUczj74io+/WB0+mOg1P0WQLqVD3rrsBMnV1T2ddqEFEXNulwInKTMAyDDn9inIDQx6o3pRI8aGvL9CVOdVZCcVTiPoVlD4IZgwvsJqrZ993hqEwJhvlp1Wk/K5tS4XB+Njg1AqoQscs3EAqPNa4Y0OQLr9l+ZVxTUVkL4I0+lz3jdTBM2kIofM5RFs4ELNwiHbWfb8RhJOOGqwLDQUDFOevllVhlu8Csu2CyINAKpQiDwoHJ7HONpaMs20jUgfVswqcPo4xlNI3WqKUfGM0vtcb5ol9uYIloiqE2FjN0jj6pIcasnBwOL6hXcpm/2bYX69fD5z/UKu7M+sBK5tcH3Jwl8VXFqzEYI8y1+PTAApZFkj4+sCJpfcDpXtu3LN17QvqwijcecB7lycCr0q4PhOEvXILJfQbWcAXO85in65wKCRTmB9U09ilDxqjCQh0NOw5SZhNZjXN1ovXVtsZfvXPbg8Axy2yZD+kjZe4V1gg+LwNojtrOvmFLbA0IJeHs78imHJOnYUZND349VLOtnKTT5+1mCM/JjOHVEgKO/JmDY7AYxK0+FwP9JKxExbXX4WM7PSogk/W4aRxjMxcDHzn2f+usl+fw/CLq47hgn17nOKLeamhTvvbmwK3dBXdueHNB6lYO3adieuOAU5dBTBcKmQMIx/WBk8F0o8+5aQk2SsNQ8Esc1llVxLW+ytRBrHPKTAnAHYdPEOa81b1a5VDntPLrcMzYEUaL33MscmLbOpfZNHWQvs/drX0kDoTgymtPLTufyuwE4EYSZ4B52lP7rKW+5P/zh+7JQvYusWwLGPhEDXKeRm10RNtZlmgwNcPCP/HZjB432+tYV1FQ6hjebW32hwU1qHPvIMBaL+Lb4MBJpnOdWzU/BAFHidIyl6/7ShqON3R3Oz9+Ka0nFkyuzfbHsrQ+4KT10Ld5Sx9I8lVwHx+w8lIOHQ60vebj3hMOk+S/eWChNUFSyX/swNDH9Lx3t/RRD1R8bx8fWMGt9YFXVpJQxSD5pXvx5JKeRflvDoShTtwYnlIbrFD3G4yFhduQZY7XluxUKU5W6HOWb1VfhgZ+YOooSaqt+3YpqSGGLfLo9HivlHAM1keHQst1H3MSNiqCHJM5BNtRWnEJHCnAvaG+UkYYGheu7eAGMwd4BObA6U9+fgV4cOvGGqTBDJCP5J0/sDxPdm5E6oBurJbyk0jxMwH4EvddZN8HyXftiZX1NjIKCqcxwObBT3bOLF/krJnrmYsVHbGcaJ8yEA2I8W43eQdfyRRZztmzQKyYc5x6ouwl7znQu9zNDQxdu5KBHaYR5k+V2x33rSLH18CZ2eyske5fAuA1kBCDDfsIisNL8BYXn9c7HMMthjJLxT1zczz7xOxZRh3e4uKHEMpzlwSXEzhi2yZDwfadVSgu/SkRIUtb72MRtgN+rShjFCQQe/LAgyQytTdw65lNSxKobXOLHMGQBzPkqJOrXcV/heWNYpXyWLqL2PFdCjsOuMKu9rB6gEpHW2Ve4rC4dr94FsXCucwltMlLrFu7weJrje+mJO2T/J6SlS+gAAtEzB8oLzHmMGiMGxQ7kw/cIx4GDwn7O+GhcfbF3pq9p98bGUFZNpi7HzbGNzp3w3BMiq+qHbGQgEBmFUfk0B/Dw+BqcoxDYE62yqSR2ixZdmKP21QgcVgJgt9g0uZUo8LlcT4ti4M+PSUn8f5AK8BqpybhGmE/ng5fMBhf5HyY5mfLMG/R2JoylxRHUhXaes5X6S0UPeBs0kBsmD0UiGX5JzNisGxnxJ4+cq8Ygd6CpCSm2rwYCQefGzcXcrNCINdrKHnsm7igtWyMa7NnWbKvzYQRHXByG/COVT/CgVU1ULJtrjzYpyY+aVVYf+6g5hvLoWidNe2v1I60LnObFf94yUxlhOmq/Er8BFrZZL72ZdBsdP4k5suKpxavDH+I3ygsqPCTNXPYKTFuBHNIT+M2UOJFX7U+uG+osa9h4A69dBVO7wKWBEGj10AsdHlPymHzaslfbI1jhsoNPqgbJ4MIeI+dp+Fmk80N3kweOMWPk5YYXJyNArHL4v3gHlx6mO92MrgnkMrilhl6MRm+QveysGxwBRrXwRIBhwpC2moObCAY7w4x4qRfCzD6OvpCrU4kzcht1xrmuw3utiLPsozDMwGFL09gpaX7qC4HejNwAMRZs9cDI2Y/7ujY0wfueaVBOZ/r2n19Lg2fcF1oygxev5LKLovCmVljprhLoNU39t4o0qb4VSaje+JQx1dS3/QLHpqUpnXWfOjNv9FkQebxQdJ1lwXrUhMDVwBN1e8MW7RZUEdwSyDjVT10GV73WIwWyhXWPRYsV8yNGUvx5c6LDgsIj3KBO0wWtw0FUpl8nluTcmreGxsloFUb6yQEq0A52WNwWk/25LJ0gvMK+6yS8aaLviPwWGVnt9+cYLg5BsoBiaAmfHnpyLHwKT+89EtiORON+RLui3SyZVD3nK/DDfc+rj847LcXqnsNTECxLhQB4LThN27wpNdZFpeKB1JPH7hbAsY4OC63hzJ93g0BLF6HteALEuAqN+Cxla2HW1XvAtxolwc1PQlHLQMueUtAn6NxZCuYLhSskNNT53jFIX51JByJNL2uNNiRHOQqUJofKPFSDYhx1BNMU/ZY4PyBR5vFcAOuVr3LypZCzl3i2DJfUzhi1YakG6iF9dNz5TEbo73Lyt3YPUN3CpS5f/2y4b7TrEcNNWuMYwwuvwFrDJ9/GmHKunPOzkZ8Lv254P+5wKv2xZJDHqkcfAIvu/jcCSe/cVM7MUNkLyZA4bsbp86ouwpN7BJVbiuo0JgnToeXWl3PSJoFUJzD3IVV3GE6K98NbHvWOZQj2BkAOJi8VOYARj8e/ap+i3YmAqM11qhfa+EF9i+4SOcP3CU3c0cKYBNsiR+RI9yB0gEJWGzoL7Y8okvHm11ORh+cjGFM48ydDY4LuLS8EKsDNPjaIDoAHCRaWBPndyTMoszKYVEVdsgLRBw5rzf6Ds8fuFsZrsGhN1ZCESd/pMxIVMG1hvADTRywfyKMw8/0OL7EMdd1k+XFzuR7T5b7YbDiDuIA8IwBJXtu7jjwwCAjDzEJvTU0/TiRGjRizr6M8wQXzQMrWhvgD8gBwBlhPP6bJ+7i09hfPObG65jzZRc29/Am9ngHVeDHnLBiYXmxBD/gyDQLvx3H4lWWOa0cznmvftj5ucrbE6jcBqzK5uXmnWQJA2T0xEMKSnyllJ0WN79EfpFK0vbhIqF4YJHd0ierf/vAonp1Kpk/dkDtpePxZLo3G+U7V20r2NEXNcw1OgIF0Dnr36m5OTOCS6mEsNEz+JzaxeHFnBHpISqPOpVsfT23DMeK2NxbXVrxDA5XHc5UJdSWHWocjG9WjkAdchg7eXAAoeGUteyzedvxuEVFpzeiAEDdhd6vcomRJ9e4CR7mtxuTL14e4TqxGWsO1fBRdRztHF/Fhe5pn7252zY/fZYHlspD6VKMxM0l6qMAb55YnkfZtEflQiMTiG2w2/zORnjo9fIIxtksdumGGP3z0JN72stQdXdA9z1ybw6c3Ac3fsNHJ3fkkzlMtFF4PyNz8Xu4kWGVxWVw8DxYsa+xdFzCznIVr/vjTIe+7gifPXksS2GimiXHjlqYMUJEJirBTh6vsEObUxuZbu3eiW9MKsOqUOK631FPvexfX4sFtyfk5q64t2wMPITLhZ1vzKtzhseo3t+g5HAwMzPr3lZBZdXCRn12aPcYJbW4Jceic+S451Pjc+PAq3lT8RVvy+EKPALdixcO/eKHo16O82F5EqCncil98WMxL2f5sPD781k+LE1nGIxtzyNMN7+a5cOqeK79woPTviZzjzq8H+TDUbjfGORj8HMBgTh9jXVzjtSrQT7sMYRhYVyBNWqO1OtBPuTZcKvLEjScMo5olc7RMp8N8iGa5KJyCBETH6/UXg3y4cFvDPI5f97OH+8H+eAk5yzAQ+FeUz8b53KQj0W/784gn1ngyOlvjQntjwb5GBcQC3fTzuVfjtiLGDO5x1G6DjFzgSLziXBSwTBxUuB1kJndLcq9eqzl9JOnFkHmE+m6sXUQuARmj/sYodN9r81i66BOpxlSl3Lw+64G+exdyh8N8uFuMQYp2GrTfc3X9SCfc728X/rFIJ+jFTjkb65dqRumw9maEWYKLm0Nj3AeRhZoRd+icDHIR78quQAumAOKszMvpvhoXPlwI0E0a30F7vicTR9k9/0QH85VZLE/Tmmv3ju4HOJzIg13hvhQAIX7Ujj4NQyLuhziw5Jq4ba30VL2I5ivh/iwKS7GbJYd53xXXNwxmztCU9/lEB/GkHTGHxOcgE8m+MyTQR6WE3zOH/hgkKvxPfNXDpob1eLzmZfje06u9c74nvki+Q/OI42VAu+n98zVcJyH0xhjcoReTe85A0Y3pveci0e+emC5kMhy+InvhvecKIA7w3vOVc7ud7yf3HOu5fbE+/vJPUeVel9xr/Xwq+K2w1C6W24INMEz5fjNA8tlZcaW/FG5RzEOoFpsKsNZTv1lXQZnfbgLv9pUNmM97sJvbCozbirjuJZmjHU4Yq82lRG8FU4qaczVxTV27zeV2fc2lTEgBc+XK6MBeTy6v9pUZtxURo+Kf+2jMZebyux7m8qMrccmw7gKKQzov9pURpDbSuf8/eRH/VxuKbPvbSmbc1G47YG+ZkhxX20pM24pU9ayAqyEifBXxU72nS1lOPQsT7gnufHAdaiYQTYLBy5RIO9A5m7Nyp26oajpar+Fza2VMPOVDQrBCrxfU2bfW1NmTFkody0loJKwiXuxqIzsVb5GD9vO0Yeip7eLysjRcVzWcgYVRahxcxO+VXqoIL7cU2YceGRf1RmhUuByT5l9b08ZVVNnLbOxQD1Ot3m/p4y6kEnTTqfKaabLNWVUv47QG1vKSGjhSHbOkW7+Tq/WlM33QUBrjAb5cTFXO8rsOzvKHs7zzUSSfbqkjMuWXPPZakmZcUkZ3Qd2jz/f1Q2Xz+ZeMEJvLnDQsPL1Yk2ZfW9NmTF3WWgl4BGVUGx5uahsjucCbwArZl8PdLmn7AiVdvd9sacs4qvViwuQ7+MDK8OxPoB/+ceffv/l6z/+8te//e2fv//263/9fPz7v/z628//+duv//r7n59/9M9f/vSPn/Ff/x8=);strokeColor=none;spacingTop=-3;spacingBottom=-3;spacingLeft=-3;spacingRight=-3;points=[];labelBackgroundColor=none;rounded=0;html=1;whiteSpace=wrap;" vertex="1" parent="1">
          <mxGeometry x="1180.5" y="769" width="77" height="30" as="geometry" />
        </mxCell>
        <mxCell id="wbwyxBnnDAt64wQGkXWY-25" style="edgeStyle=orthogonalEdgeStyle;rounded=0;orthogonalLoop=1;jettySize=auto;html=1;entryX=0.514;entryY=-0.009;entryDx=0;entryDy=0;entryPerimeter=0;" edge="1" parent="1" target="wbwyxBnnDAt64wQGkXWY-9">
          <mxGeometry relative="1" as="geometry">
            <mxPoint x="1215" y="812" as="sourcePoint" />
            <mxPoint x="1215" y="878" as="targetPoint" />
          </mxGeometry>
        </mxCell>
        <mxCell id="wbwyxBnnDAt64wQGkXWY-26" value="TCP" style="edgeLabel;html=1;align=center;verticalAlign=middle;resizable=0;points=[];container=0;" vertex="1" connectable="0" parent="wbwyxBnnDAt64wQGkXWY-25">
          <mxGeometry x="-0.0566" y="2" relative="1" as="geometry">
            <mxPoint as="offset" />
          </mxGeometry>
        </mxCell>
        <mxCell id="wbwyxBnnDAt64wQGkXWY-27" value="&lt;div style=&quot;font-size: 1px&quot;&gt;&lt;font style=&quot;font-size:22.58px;font-family:Arial;color:#000000;direction:ltr;letter-spacing:0px;line-height:120%;opacity:1&quot;&gt;Зона доступности 2&lt;br&gt;&lt;/font&gt;&lt;/div&gt;" style="verticalAlign=bottom;align=center;overflow=width;vsdxID=5;fillColor=#e3ebff;gradientColor=none;shape=stencil(vVNBDsIgEHwNRwxCjHqu+g9iaUtEaBa09fdSwdpi9dBDb8vOwOwsGcQyW/FaIEqsA3MRjcxdhdgBUSp1JUA6XyF2RCwrDIgSzE3n4VzzjtlVV3PvXmjDPdLdoOQRTrvtavNqnAKXw9mDELkBIhDJaxrJZIy/YRLfbjFvpcVgHHfS6JGu4lAK7GVwoXg5gmwjRP3VjoMpqQcm9tPKs0z0Y6crWcBHqt0PN8tJspXFfmNKdpaBH8tYwML/VPjiE6dCKhXSOMTT+PlWiC47PgE=);strokeColor=none;spacingTop=-3;spacingBottom=-3;spacingLeft=-3;spacingRight=-3;points=[];labelBackgroundColor=none;rounded=0;html=1;whiteSpace=wrap;container=0;" vertex="1" parent="1">
          <mxGeometry x="1421" y="499" width="390.22" height="582" as="geometry" />
        </mxCell>
        <mxCell id="wbwyxBnnDAt64wQGkXWY-28" style="edgeStyle=orthogonalEdgeStyle;rounded=0;orthogonalLoop=1;jettySize=auto;html=1;" edge="1" parent="1" source="wbwyxBnnDAt64wQGkXWY-32">
          <mxGeometry relative="1" as="geometry">
            <mxPoint x="1686" y="719" as="targetPoint" />
          </mxGeometry>
        </mxCell>
        <mxCell id="wbwyxBnnDAt64wQGkXWY-29" value="TCP" style="edgeLabel;html=1;align=center;verticalAlign=middle;resizable=0;points=[];container=0;" vertex="1" connectable="0" parent="wbwyxBnnDAt64wQGkXWY-28">
          <mxGeometry x="-0.0566" y="2" relative="1" as="geometry">
            <mxPoint as="offset" />
          </mxGeometry>
        </mxCell>
        <mxCell id="wbwyxBnnDAt64wQGkXWY-30" value="" style="shape=image;verticalLabelPosition=bottom;verticalAlign=top;imageAspect=0;aspect=fixed;image=data:image/svg+xml,PHN2ZyB4bWxucz0iaHR0cDovL3d3dy53My5vcmcvMjAwMC9zdmciIHdpZHRoPSIzMiIgaGVpZ2h0PSIzMiIgdmlld0JveD0iMCAwIDMyIDMyIiBmaWxsPSJub25lIj4mI3hhOzxwYXRoIGQ9Ik0wIDE2QzAgNy4xNjM0NCA3LjE2MzQ0IDAgMTYgMFYwQzI0LjgzNjYgMCAzMiA3LjE2MzQ0IDMyIDE2VjE2QzMyIDI0LjgzNjYgMjQuODM2NiAzMiAxNiAzMlYzMkM3LjE2MzQ0IDMyIDAgMjQuODM2NiAwIDE2VjE2WiIgZmlsbD0iIzUyODJGRiIvPiYjeGE7PHBhdGggZD0iTTExLjk5NSAyNEw3LjAwMDk4IDE3LjczOEw4Ljc4MTk4IDkuOTI3TDE2IDYuNDUzTDIzLjIxOCA5LjkyOEwyNC45OTkgMTcuNzM5TDIwLjAwNSAyNEgxMS45OTVaTTIwIDEzLjE5NkwxNS45OTkgMTAuODk5TDEyIDEzLjE5NlYxOC4xTDE2IDIwLjQwMUwyMCAxOC4xVjEzLjE5NlpNMTguNzggMTMuODk2SDE4Ljc4N0wxNiAxNS40OTlMMTMuMjE0IDEzLjg5NUgxMy4yMTlMMTUuOTk5IDEyLjI5OUwxOC43OCAxMy44OTZaIiBmaWxsPSJ3aGl0ZSIvPiYjeGE7PC9zdmc+;container=0;" vertex="1" parent="1">
          <mxGeometry x="1686" y="569" width="28.571428571428573" height="28.571428571428573" as="geometry" />
        </mxCell>
        <mxCell id="wbwyxBnnDAt64wQGkXWY-31" style="vsdxID=5;fillColor=none;gradientColor=none;shape=stencil(vVPLEoIgFP0aljgEVuPa6j+YRGUica6U9vdhUKk4LWzG3X0cOPdcOIilTclrgShpDOiLaGVmSsQOiFJZlQKksRFiR8TSXIMoQN+qzOU175F9dNX3/obOnSP9CUoeLktIFL8KJ4flcLZN8NhtRJiDwxsf7VwhQHjAhniCDvNONhi04UbqakSuOBQCWy6cK16MWk0rRB2U/XRKVgMlSRwl+1nyhWI+s0+Xs4KYgNvPtlBKuJvVniX4En+9yfxWVpDx2yc2+Bosl0o5fw77U0PakjMzOz4B);strokeColor=#ff5958;spacingTop=-3;spacingBottom=-3;spacingLeft=-3;spacingRight=-3;points=[];labelBackgroundColor=none;rounded=0;html=1;whiteSpace=wrap;container=0;" vertex="1" parent="1">
          <mxGeometry x="1621" y="559" width="130" height="100" as="geometry" />
        </mxCell>
        <mxCell id="wbwyxBnnDAt64wQGkXWY-32" value="&lt;div style=&quot;font-size: 1px&quot;&gt;&lt;font style=&quot;font-size:22.58px;font-family:Arial;color:#000000;direction:ltr;letter-spacing:0px;line-height:120%;opacity:1&quot;&gt;InsureTech&lt;/font&gt;&lt;/div&gt;&lt;div style=&quot;font-size: 1px&quot;&gt;&lt;font style=&quot;font-size:22.58px;font-family:Arial;color:#000000;direction:ltr;letter-spacing:0px;line-height:120%;opacity:1&quot;&gt;namespace&lt;/font&gt;&lt;/div&gt;" style="verticalAlign=bottom;align=center;overflow=width;vsdxID=6;fillColor=none;gradientColor=none;strokeColor=none;spacingTop=-3;spacingBottom=-3;spacingLeft=-3;spacingRight=-3;points=[];labelBackgroundColor=none;rounded=0;html=1;whiteSpace=wrap;container=0;" vertex="1" parent="1">
          <mxGeometry x="1621" y="599" width="130" height="54" as="geometry" />
        </mxCell>
        <mxCell id="wbwyxBnnDAt64wQGkXWY-33" style="vsdxID=5;fillColor=none;gradientColor=none;shape=stencil(vVPLEoIgFP0aljgEVuPa6j+YRGUica6U9vdhUKk4LWzG3X0cOPdcOIilTclrgShpDOiLaGVmSsQOiFJZlQKksRFiR8TSXIMoQN+qzOU175F9dNX3/obOnSP9CUoeLktIFL8KJ4flcLZN8NhtRJiDwxsf7VwhQHjAhniCDvNONhi04UbqakSuOBQCWy6cK16MWk0rRB2U/XRKVgMlSRwl+1nyhWI+s0+Xs4KYgNvPtlBKuJvVniX4En+9yfxWVpDx2yc2+Bosl0o5fw77U0PakjMzOz4B);strokeColor=#ff5958;spacingTop=-3;spacingBottom=-3;spacingLeft=-3;spacingRight=-3;points=[];labelBackgroundColor=none;rounded=0;html=1;whiteSpace=wrap;container=0;" vertex="1" parent="1">
          <mxGeometry x="1619" y="831" width="130" height="105.5" as="geometry" />
        </mxCell>
        <mxCell id="wbwyxBnnDAt64wQGkXWY-34" value="&lt;div style=&quot;font-size: 1px&quot;&gt;&lt;font style=&quot;font-size:22.58px;font-family:Arial;color:#000000;direction:ltr;letter-spacing:0px;line-height:120%;opacity:1&quot;&gt;PosrgreSQL&lt;br&gt;&lt;/font&gt;&lt;/div&gt;&lt;div style=&quot;font-size: 1px&quot;&gt;&lt;font style=&quot;font-size:22.58px;font-family:Arial;color:#000000;direction:ltr;letter-spacing:0px;line-height:120%;opacity:1&quot;&gt;(master)&lt;/font&gt;&lt;/div&gt;" style="verticalAlign=bottom;align=center;overflow=width;vsdxID=6;fillColor=none;gradientColor=none;strokeColor=none;spacingTop=-3;spacingBottom=-3;spacingLeft=-3;spacingRight=-3;points=[];labelBackgroundColor=none;rounded=0;html=1;whiteSpace=wrap;container=0;" vertex="1" parent="1">
          <mxGeometry x="1619" y="876" width="130" height="53.21" as="geometry" />
        </mxCell>
        <mxCell id="wbwyxBnnDAt64wQGkXWY-35" value="" style="shape=image;verticalLabelPosition=bottom;verticalAlign=top;imageAspect=0;aspect=fixed;image=data:image/svg+xml,PHN2ZyB4bWxucz0iaHR0cDovL3d3dy53My5vcmcvMjAwMC9zdmciIHdpZHRoPSIzMiIgaGVpZ2h0PSIzMiIgdmlld0JveD0iMCAwIDMyIDMyIiBmaWxsPSJub25lIj4mI3hhOzxwYXRoIGQ9Ik0wIDE2QzAgNy4xNjM0NCA3LjE2MzQ0IDAgMTYgMFYwQzI0LjgzNjYgMCAzMiA3LjE2MzQ0IDMyIDE2VjE2QzMyIDI0LjgzNjYgMjQuODM2NiAzMiAxNiAzMlYzMkM3LjE2MzQ0IDMyIDAgMjQuODM2NiAwIDE2VjE2WiIgZmlsbD0iIzUyODJGRiIvPiYjeGE7PHBhdGggZmlsbC1ydWxlPSJldmVub2RkIiBjbGlwLXJ1bGU9ImV2ZW5vZGQiIGQ9Ik0xMyA4SDE4QzIxLjMgOCAyNCAxMC43IDI0IDE0VjI0SDIwVjIwSDIyVjE5SDE4LjZDMTUuNSAxOSAxMyAxNi41IDEzIDEzLjRWOFpNMTkgMTdIMjFWMTVIMTlWMTdaTTEyIDkuMDk5OThWMTMuNEMxMiAxNi44IDE0LjYgMTkuNyAxOCAyMC4xVjIwLjZDMTggMjIgMTUuOCAyMy4xIDEzIDIzLjFDMTAuMiAyMy4xIDggMjIgOCAyMC42VjExLjZDOCAxMC4zIDkuNyA5LjI5OTk4IDEyIDkuMDk5OThaIiBmaWxsPSJ3aGl0ZSIvPiYjeGE7PC9zdmc+;container=0;" vertex="1" parent="1">
          <mxGeometry x="1663.5" y="835" width="36.26923076923077" height="36.26923076923077" as="geometry" />
        </mxCell>
        <mxCell id="wbwyxBnnDAt64wQGkXWY-36" value="" style="group" vertex="1" connectable="0" parent="1">
          <mxGeometry x="1464" y="539" width="336" height="133.71" as="geometry" />
        </mxCell>
        <mxCell id="wbwyxBnnDAt64wQGkXWY-37" value="" style="shape=image;verticalLabelPosition=bottom;verticalAlign=top;imageAspect=0;aspect=fixed;image=data:image/svg+xml,PHN2ZyB4bWxucz0iaHR0cDovL3d3dy53My5vcmcvMjAwMC9zdmciIHdpZHRoPSIzMiIgaGVpZ2h0PSIzMiIgdmlld0JveD0iMCAwIDMyIDMyIiBmaWxsPSJub25lIj4mI3hhOzxwYXRoIGQ9Ik0wIDE2QzAgNy4xNjM0NCA3LjE2MzQ0IDAgMTYgMFYwQzI0LjgzNjYgMCAzMiA3LjE2MzQ0IDMyIDE2VjE2QzMyIDI0LjgzNjYgMjQuODM2NiAzMiAxNiAzMlYzMkM3LjE2MzQ0IDMyIDAgMjQuODM2NiAwIDE2VjE2WiIgZmlsbD0iIzUyODJGRiIvPiYjeGE7PHBhdGggZD0iTTExLjk5NSAyNEw3LjAwMDk4IDE3LjczOEw4Ljc4MTk4IDkuOTI3TDE2IDYuNDUzTDIzLjIxOCA5LjkyOEwyNC45OTkgMTcuNzM5TDIwLjAwNSAyNEgxMS45OTVaTTIwIDEzLjE5NkwxNS45OTkgMTAuODk5TDEyIDEzLjE5NlYxOC4xTDE2IDIwLjQwMUwyMCAxOC4xVjEzLjE5NlpNMTguNzggMTMuODk2SDE4Ljc4N0wxNiAxNS40OTlMMTMuMjE0IDEzLjg5NUgxMy4yMTlMMTUuOTk5IDEyLjI5OUwxOC43OCAxMy44OTZaIiBmaWxsPSJ3aGl0ZSIvPiYjeGE7PC9zdmc+;container=0;" vertex="1" parent="wbwyxBnnDAt64wQGkXWY-36">
          <mxGeometry x="24.99515151515152" y="86.14999999999996" width="27.69545454545455" height="27.69545454545455" as="geometry" />
        </mxCell>
        <mxCell id="wbwyxBnnDAt64wQGkXWY-38" value="&lt;div style=&quot;font-size: 1px&quot;&gt;&lt;font style=&quot;font-size:22.58px;font-family:Arial;color:#000000;direction:ltr;letter-spacing:0px;line-height:120%;opacity:1&quot;&gt;Kubernetes&lt;br&gt;&lt;/font&gt;&lt;/div&gt;&lt;div style=&quot;font-size: 1px&quot;&gt;&lt;font style=&quot;font-size:22.58px;font-family:Arial;color:#000000;direction:ltr;letter-spacing:0px;line-height:120%;opacity:1&quot;&gt;cluster 2&lt;/font&gt;&lt;/div&gt;" style="verticalAlign=middle;align=center;overflow=width;vsdxID=7;fillColor=none;gradientColor=none;shape=stencil(nZBLDoAgDERP0z3SIyjew0SURgSD+Lu9kMZoXLhwN9O+tukAlrNpJg1SzDH4QW/URgNYgZTkjA4UkwJUgGXng+6DX1zLfmoymdXo17xh5zmRJ6Q42BWCfc2oJfdAr+Yv+AP9Cb7OJ3H/2JG1HNGz/84klThPVCc=);strokeColor=none;points=[];labelBackgroundColor=none;rounded=0;html=1;whiteSpace=wrap;container=0;" vertex="1" parent="wbwyxBnnDAt64wQGkXWY-36">
          <mxGeometry x="-13.303030303030303" width="116.36363636363637" height="86.13999999999999" as="geometry" />
        </mxCell>
        <mxCell id="wbwyxBnnDAt64wQGkXWY-39" value="" style="group" vertex="1" connectable="0" parent="wbwyxBnnDAt64wQGkXWY-36">
          <mxGeometry x="80" y="-39.170000000000016" width="256" height="172.88" as="geometry" />
        </mxCell>
        <mxCell id="wbwyxBnnDAt64wQGkXWY-40" style="vsdxID=6;fillColor=none;gradientColor=none;shape=stencil(vVNdD4IgFP01POIQms1nq//BEpVF4q6U9u/DoFJxPdjm2/04cO65cBDL2oo3AlHSGtAX0cncVIgdEKWyrgRIYyPEjohlhQZRgr7VucsbPiCH6Krvww29O0eGE5Q8XJaSaPcqnByWw9k2wWNZRFMHhzc+SlwhQHhATDxBj3kvWwzacCN1PSFXHEqBLRcuFC8nrbYTognKfjol65GSNIn28SL5SjGf2efL2UBMwO1nWykl3M1mzxJ8ib/eZHkrG8j47RMbfA1WSKWcP8f9uSFtyZmZHZ8=);strokeColor=#5282ff;spacingTop=-3;spacingBottom=-3;spacingLeft=-3;spacingRight=-3;points=[];labelBackgroundColor=none;rounded=0;html=1;whiteSpace=wrap;container=0;" vertex="1" parent="wbwyxBnnDAt64wQGkXWY-39">
          <mxGeometry x="-114" y="55" width="370" height="122.88" as="geometry" />
        </mxCell>
        <mxCell id="wbwyxBnnDAt64wQGkXWY-41" value="" style="vsdxID=5;fillColor=none;gradientColor=none;shape=stencil(vVPLEoIgFP0aljgEVuPa6j+YRGUica6U9vdhUKk4LWzG3X0cOPdcOIilTclrgShpDOiLaGVmSsQOiFJZlQKksRFiR8TSXIMoQN+qzOU175F9dNX3/obOnSP9CUoeLktIFL8KJ4flcLZN8NhtRJiDwxsf7VwhQHjAhniCDvNONhi04UbqakSuOBQCWy6cK16MWk0rRB2U/XRKVgMlSRwl+1nyhWI+s0+Xs4KYgNvPtlBKuJvVniX4En+9yfxWVpDx2yc2+Bosl0o5fw77U0PakjMzOz4B);strokeColor=#ff5958;spacingTop=-3;spacingBottom=-3;spacingLeft=-3;spacingRight=-3;points=[];labelBackgroundColor=none;rounded=0;html=1;whiteSpace=wrap;container=0;" vertex="1" parent="1">
          <mxGeometry x="1621" y="724" width="126" height="86" as="geometry" />
        </mxCell>
        <mxCell id="wbwyxBnnDAt64wQGkXWY-42" value="" style="shape=image;verticalLabelPosition=bottom;verticalAlign=top;imageAspect=0;aspect=fixed;image=data:image/svg+xml,PHN2ZyB4bWxucz0iaHR0cDovL3d3dy53My5vcmcvMjAwMC9zdmciIHdpZHRoPSIzMiIgaGVpZ2h0PSIzMiIgdmlld0JveD0iMCAwIDMyIDMyIiBmaWxsPSJub25lIj4mI3hhOzxwYXRoIGQ9Ik0wIDE2QzAgNy4xNjM0NCA3LjE2MzQ0IDAgMTYgMFYwQzI0LjgzNjYgMCAzMiA3LjE2MzQ0IDMyIDE2VjE2QzMyIDI0LjgzNjYgMjQuODM2NiAzMiAxNiAzMlYzMkM3LjE2MzQ0IDMyIDAgMjQuODM2NiAwIDE2VjE2WiIgZmlsbD0iIzUyODJGRiIvPiYjeGE7PHBhdGggZD0iTTE3IDE3SDE5LjNDMTkuNyAxNy42IDIwLjMgMTggMjEgMThDMjIuMSAxOCAyMyAxNy4xIDIzIDE2QzIzIDE0LjkgMjIuMSAxNCAyMSAxNEMyMC4zIDE0IDE5LjYgMTQuNCAxOS4zIDE1SDE3VjExSDE5LjNDMTkuNyAxMS42IDIwLjMgMTIgMjEgMTJDMjIuMSAxMiAyMyAxMS4xIDIzIDEwQzIzIDguOSAyMi4xIDggMjEgOEMyMC4zIDggMTkuNiA4LjQgMTkuMyA5SDE3QzE1LjkgOSAxNSA5LjkgMTUgMTFWMTUuM0wxMCAxMlYxNUg3VjE3SDEwVjIwTDE1IDE2LjdWMjFDMTUgMjIuMSAxNS45IDIzIDE3IDIzSDE5LjNDMTkuNyAyMy42IDIwLjMgMjQgMjEgMjRDMjIuMSAyNCAyMyAyMy4xIDIzIDIyQzIzIDIwLjkgMjIuMSAyMCAyMSAyMEMyMC4zIDIwIDE5LjYgMjAuNCAxOS4zIDIxSDE3VjE3WiIgZmlsbD0id2hpdGUiLz4mI3hhOzwvc3ZnPg==;" vertex="1" parent="1">
          <mxGeometry x="1670" y="729" width="32" height="32" as="geometry" />
        </mxCell>
        <mxCell id="wbwyxBnnDAt64wQGkXWY-43" value="&lt;div&gt;&lt;p style=&quot;text-align: left; margin: 0px; text-indent: 0px; vertical-align: middle; direction: ltr;&quot;&gt;&lt;font style=&quot;font-family: Arial; color: rgb(0, 0, 0); direction: ltr; letter-spacing: 0px; line-height: 120%; opacity: 1;&quot;&gt;&lt;font style=&quot;font-size: 18px;&quot;&gt;HAProxy&lt;/font&gt;&lt;br&gt;&lt;/font&gt;&lt;/p&gt;&lt;/div&gt;" style="verticalAlign=middle;align=left;overflow=width;vsdxID=6;fillColor=none;gradientColor=none;fillOpacity=85;shape=stencil(pX3bsiPHsd3X8LWjrlmZj45j+z8UFnWoOLKooChb/nuvVXuAbmQ2uhqbehDJGRQ6UZ2Xlfef6n/885c//ePnn0r65++//fpfP//fv/75919+qv/9p1L++vdffv7tr7/j336q/+On+h9/+fW3n//zt1//9fc/f/33P/7ET/Lf/vev/4ff8O+vc2nTykMl/b8ffzD/639+ffZvf/374bO6jfztz1bdynj/+bFV/UOfb1sv7z9etix/5OMLasItfvr5i5u8/uzr28xpG+X1d+pm7787fh5/0vvFgbxp+4MH2pZfDvyvf/329Rvyjw+ULZmptlFzaQ8u2v9yVJNkKm10S+nHl/+7PP++mmb8r7dRHhdXnsSIyqjaTK39eMP/rodv/vH5+vxtdri99N/OqK1bkmIpg9hh3VGbwAZilkYuUrIjtW5NutYMmqTiJ9srtbZZSTm3YvieYebprZu1V3p5YkUuGL9rH1Yk5YT7c/f77qEPmvuWU7OhqVSr3V0vWKFYw/neUzdHbt+6uuvN2+gremVLvaQEeq33EZjBcIPDtEjF/Zk6amVryVrNFe9HsqO2gRl0jIGL0FqeN/EkWDbpjmC5ccGyKa6wgs/KeLL+4y9tAyNYbpbxc0ZK/nrHlsBGZCTwTEqpvNJcMt5e6wb2LmZt5/56OP9KMzTdkuR3T/3x91C2qYpmqVmlxDtW/E7wjNYk8nwHT5Jt69aLmuHwD537cseO3gqFoes7rq2LQgng3dZXaiv0Sx2CVyoQ9XbGwtahPfgOwDqv1NaOXzP4atoQSfGC+9YcU9Sx5bXQgQtBUM2tFne7NBUGVZXByVK8Omtby0nAMPgCUOtvF4fVRscX4wX80MNHDaGe2Bdz8E6htZY0NWk9ib/c0+ftCg2Kzow/R9IIlHYRbQJBxPfHm4X6beFmbXm1ZYPCUUulayviqB1baQ2iVvE2zVMLIw9ZAiOZtn7QhA+CqTzI2k0UghsJzpv52wV3OHqDNXye+Z59/qOfd3ghe3BBYPQCXMKF4wikGeLVMpSC0xQK2astNzAH7HdKNdx5ylQzyit39w3aqT7wFjVRH3tuLpvnD/zJUlWArQbUgXTIe+lBt1FbaC5ZR6/goRRtNCSzNhlGwoOySLXaMKmQzCh8Y/zk2ePHhVyqippJ5oAJaQ5OnD9wVxUDOno0ge5KFlUFcRftMjR9eWrxXa9lT20JzByIhU2XBFmvA3ZfA5jAK5VCy4oXKuINR4f1x9E0tFpzwgeTowqQ16jCoYy8bcZZeSUXjJvHmt6TRz54F8QCLYATKtRw3vmvHH4sfqSUVLS3oC9gRfFOuvQMrUHIEk1H9gBItrK847ZBF0NPjaSQuMDAtBC4+UEVhn+mwMFgqA6B/NLKHrHVTajIWwHrPwzp0XwURzA+vzYfgCZCJTAmSnEq4vyRu37Q2qHGMn5rrgESE702Yv+k0PfFPMYEy3oIDy2+xD/QSgU2AiYWsMA7HDDPWiBVHQB+eCxxqgzLk6HMCCZyF2iXYD3UkepU77n5WKlrp991S80faPl4IFwGj9CFImI5wa+4ipEEN1WSRP2u+PYBFQWGpSLy+JXwaQAcw6Y2wMX9fH1+f3ZynZca06D3INCEjql56cA7AL0Z/hf+PrqLeEe9KbhtFPzTuYsLBwxg3GPBGw5YAY+C921kKOlUgjwvHLAC8erQttZr6eJuN0MF1qLQFBMrmlPyOKvmb3eTlQmdsZKaVCvYOOUo0YKXprjK2nuBGrLiSIYGA0fQKwfLeJoNHgAQnGjP1AjJX3Lb4wf7H6XlLZ8+c/dn4ALjl4xGww4hDQQLZHoMAlYwledimLUKDIPv0ZEfHHcg+MmEB0u68nNpvqpCawJtFHU3XKnjOzxVvGKIZTBNeLEDLyhD09BORNMPJ1ogB/Ai8HscUMHh7LiCuHnNxvCPYJ/x4ro5vxxYv9aMZ8EflJyi1EHhDmAC/lQYJ0fslUtzInM3XBpIOeRJ4XvBcGcPUi5dGrAnpRBKCyBmRFYYm/QKqYOfAG/SaTNQ5iw+EFxeWlDcXu8KJxUKwIc8wEuQQpDSpFrUvieqe/fDoW/AQTZUvd08mIkDG3vfyxmjtW1xxsgAbT80RjiCnzogEVK0BdUDSbYJaKFMhX8/wusDHAMeg7AXHw08R6e7JXrosQ8AMRgNnktveH/JhvdGTwH4bohgEDt1O/RAeVrGW77GmVTc8DUohp1uTwZLFO/pX/kaOAk4ZFUA4VJ2nMbf2aSAdU2sOBSMkxYdjbpC7lBSlbiiJrryI7pxsOMGZF8LFLpGm9kHwMiAdzTSziUvzgZel+YGhV4DKuF5J8eMqi1V+rvH7syCW4f6gFYHUwQwNX8zkABYSSx4G4ClNUmGQutiI16yh1HAwctLxlvttMYDGLw5fmC4lGoSOgl3JBGYkJkS9WhTRje9DaI3AVEk2MqZ/+YvOfLwPLKWuHO5yYvHliuJvRsijkqC97yMaZ9qpYO/QX8PuroZ/bmo0s5V4kGRAN3A7sqA+Jl5N/Sghe/r+rXqftX1NW9PEf1xQLdcjgdenwAlUKo/MF4O+GuszBONbFBBxcQrhLwxJ1NbAmoiuzpQWpl7YMQC4pPpzXvD3phHGuAsKJ3Hlz/uEIeLD1vL44/ev3caHMgQFEGG9xojq6CGMWsgFa9vcZIhIcZOhWHZYB0uMZNFam9gJvBhHgZhToDBn2AmqNOWVQFDIJVOooiXJBukFX6COXEq8pD3F7y0pJRXD3rhBIJezwdlo/s3+DjJxUdHSt8sw61vEKjmWAD3Rl0IEYOzJRb9v/4IT7+48EuNdfbIx99lnAdutkzPcERXCkC+MWqNC+45pgOIOOFCtWaw61m8vsLxGB6RFR7FqQ4fCq8T5rG6kORXggIQAVIGto5QX4DQGA3AB4J6LdNtKVLV8JN8NId8FDOGsvRMIEi5Q/LHKCNo10RPSqffMuj7eXIVOAK2oNXWnzD5bjwAcuaswY14wBRtSLQxsZd2LrsZD6BOaVbghcGVbT1GXPD3sAbWcwP/5xATgCrL3uyWx++4oBov4ovaXMczkr/b3AE3E6quKp0Nc0JH3Qy93XtW2ihHcCcY+8qUJT7B696yZSd14HrxSsJZl7Qb6qdFO4D509eiicaj19ayE9M8Nv4xwGbvRVOAx3wpiRi44f+H09UMlwCnjlFxMXDXwg9MwUDnG1qQfITLaUXhUycfoiFcrczpFctwLYNegZs7mCBhiMfjeb5OrVDozOdANwW0aY9alyNyG8uwEt7ahDnAv0kc17995i6nEAmF4wLArzFEQ+QGpw56UDvAbAyFjZBAmEnlFc1jq0JACMqgv2MoDLoHLkoGbCfzB7uYB5AqlDcwf4puSNoGc7110I/RE3Xo8wcwN3V5ze+eekjZJUY/pXbA5OdTy+EXZ6sNwKOfBMI0V1is0fe89vGKY8Ju6TSRHMWLmyFbOc/XMawHLi/5THvjjRNnGG/Qx8EunWjbnPa+5UNTcmC9lNFET+uVC015VXhZoBaXdxKzg2EVJTCFPXek4mzzQKmuuZcZVt4KUygjndwtFH+CdgCj9HywxzvFVkHvaJrovwQQmljPNNO3ADht91x2U5PcDTun4Exzrx0J53mUTV4PLCrUWJiQ/+ABvKt2cUB2yf3mgUU9IZjF1RV8fGBFUrzWjw8srnV9wL1p255FJk99eB1P5BEBA8P4Zmm+mmyR3MLhRmQOlxDMHWHLZWarpRBlX2a2GjEIpFVBc45A9jKx1eBJwGfpkNQ6mgPeCyDbytacQb8BZBvLGQF48OOfquMmiG2AJwNIgAZKT4o2L7NaOOzdsDtZrdY3+CWARCxX9AB2kdHCWYUzSb9FNQDYRUZrHnZq8EZG6/yZNzNaODyIpifj5lh48z6dhZPtpOxmZcYb8xzwawbx70kg/DKdhTdKxKIs3ZTqo8tXuSwykjfi61xWI7uULgVIRtQ5uKtcFg4TVMGhAUIKofCruMyJmN2IyzTGSfFdMLG+2vgyKtOY7TCGt2t/xpdupbFackTeyGFBV1a8YNwJZKz593+RwzrX0DdyWEdrcDuuecOEvNoc3GINFRjXNodHoPdYENx6+zCBhcN4L0ovE7BLntx3K4fVUqgQv5HDAoNVFucYoB5s4f7IO2ksHCb8hq8Bh8NXgF6h7zNhuAG/KX1j8OdneLY+SnmFvxuTOrCgYKpchif1KoWFk+YT5jdSWI0RZUguU22pOAV+mb/CyW5wOotB7IGuPROs8lc4Hw3OMn319qk301fz9xbwrMG7YRTI155dZbB4x7FYbpnB4kuFcw5bKHBVfCXXIoM1eakAxbGSPXlqF+mrE/69k746lZebqau3gnoze3WiHu5kr96qpJsJrHN9eDN7ddS/t7X8DaXttPzw6a6F79LgEn7UFhUPMKJ6UdndQ+X44gm97lG5bx5Y+JC9+AKQjw9kgDO5vCWpnzwhvriPD6xe3PrAKy/hxfVXXz5t6eo1lL1+7PzzXiBxojZjCgyQ0Cc8GMtnWT1A+Iw4O3uNsyyzhRcENCkeXABOArxZrn0UCY4XftlwdhAGd4UMcaq1ypAXzWA3D2KFVgFKvLKLLFqVDqUFOwcwnqT4qnHmD6sw+iRS9/jWk+DkOwjkhoa2bZYVABPAQmRP7PkDy/NsZSwt1dR8wIC/E+aR9VrqFXO81aVXAEnpBJBVWVb9SiVsKRyywayDKR1oD4UUrwQm3lpmO12w1OAhpqYaK2/gpvtrxfHqbPUry56p5EOu7B6X8wRznoX9RepNOy6z02PPDDDAeHsnzZilbAlW1LJPyEAEAODgqRqgTIk/zwJ6eilMeMc1cFGANfCNTy91fx9FAU86/orA1MdZwaaJ3WIDL3LQl/NS2QcsK2wvoCtuwwERnK6O3mf50oVUJqZi4eFaU8U/zYP+Nw99kJy3lLRBiwjE0uf8N7wwSHsuuA72PHqKsw+8P1vBLtUIEAQ7C4XNfl7pQR5ZFE6Pium5FsjtUHtsW7QWstIwGKlZZuBsFv+2QK6vBluy+9oIuK78l8+O/OhEPbcYe1X3Nz/fH2DkPDC7PQvNv/d5sxfvKDbb1/aHPr+gJ/2BD1/f5OLDsdfuFV9ZekHboeiqbtldTF4oSTZEw5zDGVAVX8FnsOe0Dglu6KjV15WxpFPpjBW27rzKhMmWKCxwiBkQdRqS/TMOlNt4uYvzMrjMMCDMB4CHdKcjjUVLbNxMig9q6J2HvjJ4ITDKVNyOWtvs+D8XgLXQtwkpX9Cq9LBt0EJYVh/dfvO88jjLZmJgmSLSsw/F6zZYdJlEARXcxY7QSoAXUVZOsGyzeRcf7i37eh0wAfxB2PEG0yTiSIX7Zx100ltk+YMzPWBYuAk2Erznnn0ETjZ3rdrX/f3vnvi497xNBqDdGI/W1p1aZhoBn0BUftZ3/PjLgcuTzHZSeJM13KsDgqM9lOIVDySOa+iVkSEvXANaCQiDdWasg/IcAKPKhpJEDnIu72CGs/QO8J7Mt4nZps7WjLzOFWR60cA0wDop+YT/+fP2ZIu0JrDWyuBeaHLEzwRm7Ww3hEm3kwa8IvFmbzRxK5yTQljfx6HtLz/fZWVBkfKxwxlzqkmwABRBLypOcWmizoMRL+xL9zX+NVRUgGXbjQ7HkwfmnefrgBbtANxZI6kDeqQpW3zd1aowrlor2AtA3Fft1tCfi8+P67jH2DuQT4/EnzYYcVJhdCZ39T8NmLaDfAis7dNTdiVXgfzgH7fINQYDoZyCMqOF1TGNBmmkklrxDGSqCat/E4uwvEbuGxE9/DL8EEnuNdArg4x0+l/D98kYy7OkZZAqLDwKtsPxNz+/7OFNHCXAZBbcl6CRzx94y9D1TZgUFYGe78Ozdw6VctbWdVk0y/DADWwALeeQNTEEBDQNYG+mT6P20DoH2gCTOz1nDGwYm7nhqD2Ds8d+WJ9zTjEYGfthF5DqFYMN3z+r5TEi4xyC5V3/vjnw0XwEqCMgALxL/m3OoVc7swxvlmvV4YutBpCCjMJYL9t1wvV5qACludRkNAWDTY6lCjs7vd6FMjPgBNaVyvAvm7+F8xoSAGF1sIZaX2HUO5PnJQpRtBEr62s0AQz5cFpD7x4onD9wt7+d3XTCKE1z7j9+JBsZobVw68XlITRE9XGtwdk7QQqcTAMRGUQD4VrxrcYupi49eQgGFh2NOQpgRSWcCAaNUiTUG+JHWI3QU+7Y9dRIrETCuTFtk1eRWDhJ+VAm/80DWh9x4HdCJ1sF+CIss9mm6dDZ/IIMxAL/B659kDuZaaNBvdWbi34pK+tw4RnKO4njD5z0Q8O0PMzuheBdDYnCF2Rjjh48W8PUjLF9QQ9OPhoeQnAAVwccZmF7dsyBk344wnhWwV6QCjUyGGttLadSXkkdcyYGu/1hE4JHCdYCj7LIRrKvpYe8ZqaJGvVd8bNTNFQKjnpjjoMy7mMw+5y34IoOBqN2c04YS7v8rbLIA45baqyPjLNTCHvxMtowOCHeS8uHXE59fj4tQa/OKvnEqTTmq04gImMAopAiE494DR5l58y4Dj3g8AuFqwHA0YRXn1Zl1Xv0J4KnHpq/3FChlQDHA9dBF7aXaTiw6gzmD+xsncg+wDpPw3eE012eQ+MO7xrOEYAjbGx50nkwBhS8WdKTPKDSUDQ+ZJ3xYHuC0N8aTIZ7uyVMh7DgOUFOatBMrDUFKdBKAE1OMw1WfVVl0hr+b2w+fzDqk1i7MS+JE5wGXVxjKDfUCMMhB8iCd0DvJgxfHIDHAu/RCrjTyRDUWp/Zjp7qsy/soJx86xf07no4DsNMQqjac02OC/AFVpmWgcf6TL8cSG2cREUBMh/uUk5VyXgvg3XkkdTk8AucvryMdg1W6mhWoPbhKSWO7wR+LYlvG+AbAephgu+rDsPhFwUXAEcwCkLfOXCBH2IIiBx8ABdgfY1rLsKxx0fcOzB8Ot6RdD6hEL8RZo1ZOA+qWTI2p6lIjGfIbA82plKGz2vh5gx/2WeJvXe4ZU891+fH63J4HscNGTAzay6KN+wkplov4MYSIppwAyFYStDXxMFpnOz8H1jy4DXs3UG+AJaf92ppBbJWby3gvo8PrMzG+sArFC3dDxlWe2ldC4wtvg1M7THj6g3n4chQAK0GY1M9poA3nMhYDIwnfYCjQ+tjI8DhsNXaawAV8N77LIqejevP4GZ9/jinZexZenDRjtK32hmehDUZvsUYL4ytmgzUwMcIw0c59gZqRucQUGcXFyF1pphfiV2H1DmkAABwusLqG4wXIXVm+GC/8Usl20lEHU4eAHDnyCLfApt9lJoh9RsDZFh2nefkuONwg0NYhDUUdPyZaXfUsrhP2aAsJSghxtQbOyHV8AXeo+NQumBr1i2wpw/c3QthzSCnm6rXl2W2CEGRDqgi85aGraqcM0RbFS42harIO+4F060cV1g7ixc+wXElz3l9lW/c8wC8BZ3zVnEHfs5ECZHUcSOhX2YfOfMNSRlg8BwwmOFlS1qXIaEvjRn/xKAZY6Q+/nAV/4+CdSf+PwdYsQcawEdPXIv38X/qj0qFpV/d3B5s0C9RDlKCfmndQU5mlr0jVB8o9IJaOO91tMF5XeZbMRjXYdeCMM1fQ3i0cEizwi9rg4DNEQt1b2zEgDOkYSoCjLGj1R71TG+BUd9eM9t0uC+tR9/al78JJj+plRwscBPCV0hU8Uqug2tYDYx3qb5QErIFo8J+DXgHPhNXnIobj77/S5ahGRPCeuFkRZ81+jIsUKpFY5N/Y5Noq3Bz2Bkb3eeraCBZ3NN7Ix7I6TgwHawg5jzhKJBXAUFIs3LiY4FTBomNbM4sjrEPVVsOvcMlpg/HSy/c59OWwHuZFT8NOuY5GuSg6WAggV8ZMWTyxXtWmWVo8ISFX+4HLuXQbsQk1/J63z1zB92Fc4mmljkZDzX1g3JIt6+ttwzkCUQu7DiR4cWyxJz3eugotTNcQPqt+9SLQzIIDmlhHXVhzOBEN5fKBD08hY+SQSyQdDrkTjZoSgvtc+Oo8TjU7DohREEFVgCEA77x0xQJKdknx9BRsRbUQvBcrd1gXLBLhk9ic8ZsZAW8H+jXylrGGqvZqDMZ6QQvAVL4+2WXIs0iM+PdF3sf8X3d2c7bk6CjV06B8yJCRe/CT6n1Wa/2zc8v6qfSLrHfPLCqoLJN2h87sCDp5FI/PnB9qzcOuHbhuo3XOIWugozzCLULs1++PQO2vxJ0wC1kl+0r17OBiJCVmwQK12z40B0zDvANMwNUXgfisM+FMly+EFMOnzeBH1kZv/SgjxqZQ3ZgIZKv/+Xsqi4zc8+qoEjsFULl+gNvvm9A1Ko4NkOwHK70CURlj6TAkOL/cLfecJeNXVulQr3OGVOO2FDLO25kxFuaQ+A5bY0F0o7WwXpR4UQroJDk1R+7ZRrnhTCC5wGqcuKHwFkdPUxLaM+2gpcw4+pez5/3YFnATdbQ8JG99EBpA8zOA0a9WFTUzbQyADkrAwKtzxE5u9E+dkW8axJVbsCBDI3Ro9Vmq1xmwGvsJfLlefR9L75x5AmLP9SGz4I9O2x3SnUJjtkDLISD7MLyMSBS0hqQhQDudN/LDPGgfYNnD6ea0Nhb7OvAyol0rSMrHB9RWXDGUemjBXqvIivQIkyz1wHvuXjkdlWrWNsm/mZvFCviWBKWKcL5f8ZEj8WKAziJAxl2DnmSeqqd97BKZnB3NsDVoLQOtmAXrjC6LdjxlQFxFqf72SVri9M5vIxNnJnddU58LwLdOMi+RRYJ0aEMzYAQ4MGLVOjMnn1Oo/Z99sZBgNd8llhBRQvWqnPcibph4gwE46d4amH+WLfUv5wER+ol6D6RiDugm3IotTeAJShyL8OXiHu2kHEYUWckype24Wey65brqYjLg7YR7yHUdRsr29LxLIXugwx7AWajIDuXMwt3fBC3sk2GQYHSWGdkXpHDBNAfhrPYIMt+GBwPB7GoN/T4+TP3nCHXjVmCKm++SmC24LOFlUWOvgNtsOqHKZrWgF28xsHlxuKcZasLXyfsnzLQPbw2nxVPNuc50EOLupztUYBK1Wc3B6eQsJadSziCeJ1gpLbebXQuJfnqgeVKMg/BjVjV9V4T8FKXLPBO/ezxDbCqGmuxR/M28lTp7cENzt2oXC7Wa6TWF4rc0ONrtezagV8/vXBMWvMbD8OBs1k0c20SW6x8yeV5QccDtHE9XmIxg+Kd9qD2ByskO6d0Azf428Ph6qPL5ZGbvYCYwhyBZBYkjBNHA3qWI3WyhOmabWyca8pBNCPUrbDFjE3tLPQezl63cVZXvkwu4FiHQ5Qae15CxX5nrwwAPSD9c2/IgVL+isa5ssmnbFiO3geriea43tBXP0LqGOy/rAc6f+TB2awV3p3C2EgOxDL1n6b71h2xSuSeGefkQJZ4r36QnN5YqtWmz8N8V+5eLynsW+fuPNWw3ofvn80+EPIGCBm4VTkHqnNGcufSxsCtfqGWtscEg0taWWkLlrLBeJufr0oDh3dIimWvmdsJruzUZJuupBIJnkl7ONRtr4U5cIFXTTcKCHBMGzQBh3GG1A2MN6MGfJe9SGRZQBBr9ImShymAjsAMmYpkL+w/kBqq2m8M2uUxWKAKKeDOiVdSrREXZdYCsVo3MoKwJgrgnktLXmklGjNO/IIJgycS77V4qDpuTAYh9zDH0pjXlOT1Fn0bYAJuegPfPsK6BzXLJqPZMTVOXDi4Sz2xv0FG9t1xUO5+PKqLtp31R7+anEV47kMDtfi0M37VD2bX15zeif1zoy3CgRP7B+s+OGwb/loN6IFfkLk6UllZ4yMsfWt4rZnzSKov7mYRWeYUXoNdCTOHItbB59eKum+aWYfFZrBQacxMhLC0rEnKPsQCk2McfjI4pLc4UjlDSIXje+rIYfwrWdC7rDf259LGJ1bsjem9OGIzh62ydAzIO/TM4yRFEP5z20cr7ZErdjHgVktL4u9VwkAAlh7eITU+cA+zsYErwytKWcOY2sZNepUQUg5LwA554NHY1QQZ9rP8+U68FyHrIVmd5QDGLQ65eJMCZKFFgGhb58CEwAO4N2417JLFU0ogyFFOZIIwL66FxnMXVD9TJEF8F4H4z+V9fWClUczj74io+/WB0+mOg1P0WQLqVD3rrsBMnV1T2ddqEFEXNulwInKTMAyDDn9inIDQx6o3pRI8aGvL9CVOdVZCcVTiPoVlD4IZgwvsJqrZ993hqEwJhvlp1Wk/K5tS4XB+Njg1AqoQscs3EAqPNa4Y0OQLr9l+ZVxTUVkL4I0+lz3jdTBM2kIofM5RFs4ELNwiHbWfb8RhJOOGqwLDQUDFOevllVhlu8Csu2CyINAKpQiDwoHJ7HONpaMs20jUgfVswqcPo4xlNI3WqKUfGM0vtcb5ol9uYIloiqE2FjN0jj6pIcasnBwOL6hXcpm/2bYX69fD5z/UKu7M+sBK5tcH3Jwl8VXFqzEYI8y1+PTAApZFkj4+sCJpfcDpXtu3LN17QvqwijcecB7lycCr0q4PhOEvXILJfQbWcAXO85in65wKCRTmB9U09ilDxqjCQh0NOw5SZhNZjXN1ovXVtsZfvXPbg8Axy2yZD+kjZe4V1gg+LwNojtrOvmFLbA0IJeHs78imHJOnYUZND349VLOtnKTT5+1mCM/JjOHVEgKO/JmDY7AYxK0+FwP9JKxExbXX4WM7PSogk/W4aRxjMxcDHzn2f+usl+fw/CLq47hgn17nOKLeamhTvvbmwK3dBXdueHNB6lYO3adieuOAU5dBTBcKmQMIx/WBk8F0o8+5aQk2SsNQ8Esc1llVxLW+ytRBrHPKTAnAHYdPEOa81b1a5VDntPLrcMzYEUaL33MscmLbOpfZNHWQvs/drX0kDoTgymtPLTufyuwE4EYSZ4B52lP7rKW+5P/zh+7JQvYusWwLGPhEDXKeRm10RNtZlmgwNcPCP/HZjB432+tYV1FQ6hjebW32hwU1qHPvIMBaL+Lb4MBJpnOdWzU/BAFHidIyl6/7ShqON3R3Oz9+Ka0nFkyuzfbHsrQ+4KT10Ld5Sx9I8lVwHx+w8lIOHQ60vebj3hMOk+S/eWChNUFSyX/swNDH9Lx3t/RRD1R8bx8fWMGt9YFXVpJQxSD5pXvx5JKeRflvDoShTtwYnlIbrFD3G4yFhduQZY7XluxUKU5W6HOWb1VfhgZ+YOooSaqt+3YpqSGGLfLo9HivlHAM1keHQst1H3MSNiqCHJM5BNtRWnEJHCnAvaG+UkYYGheu7eAGMwd4BObA6U9+fgV4cOvGGqTBDJCP5J0/sDxPdm5E6oBurJbyk0jxMwH4EvddZN8HyXftiZX1NjIKCqcxwObBT3bOLF/krJnrmYsVHbGcaJ8yEA2I8W43eQdfyRRZztmzQKyYc5x6ouwl7znQu9zNDQxdu5KBHaYR5k+V2x33rSLH18CZ2eyske5fAuA1kBCDDfsIisNL8BYXn9c7HMMthjJLxT1zczz7xOxZRh3e4uKHEMpzlwSXEzhi2yZDwfadVSgu/SkRIUtb72MRtgN+rShjFCQQe/LAgyQytTdw65lNSxKobXOLHMGQBzPkqJOrXcV/heWNYpXyWLqL2PFdCjsOuMKu9rB6gEpHW2Ve4rC4dr94FsXCucwltMlLrFu7weJrje+mJO2T/J6SlS+gAAtEzB8oLzHmMGiMGxQ7kw/cIx4GDwn7O+GhcfbF3pq9p98bGUFZNpi7HzbGNzp3w3BMiq+qHbGQgEBmFUfk0B/Dw+BqcoxDYE62yqSR2ixZdmKP21QgcVgJgt9g0uZUo8LlcT4ti4M+PSUn8f5AK8BqpybhGmE/ng5fMBhf5HyY5mfLMG/R2JoylxRHUhXaes5X6S0UPeBs0kBsmD0UiGX5JzNisGxnxJ4+cq8Ygd6CpCSm2rwYCQefGzcXcrNCINdrKHnsm7igtWyMa7NnWbKvzYQRHXByG/COVT/CgVU1ULJtrjzYpyY+aVVYf+6g5hvLoWidNe2v1I60LnObFf94yUxlhOmq/Er8BFrZZL72ZdBsdP4k5suKpxavDH+I3ygsqPCTNXPYKTFuBHNIT+M2UOJFX7U+uG+osa9h4A69dBVO7wKWBEGj10AsdHlPymHzaslfbI1jhsoNPqgbJ4MIeI+dp+Fmk80N3kweOMWPk5YYXJyNArHL4v3gHlx6mO92MrgnkMrilhl6MRm+QveysGxwBRrXwRIBhwpC2moObCAY7w4x4qRfCzD6OvpCrU4kzcht1xrmuw3utiLPsozDMwGFL09gpaX7qC4HejNwAMRZs9cDI2Y/7ujY0wfueaVBOZ/r2n19Lg2fcF1oygxev5LKLovCmVljprhLoNU39t4o0qb4VSaje+JQx1dS3/QLHpqUpnXWfOjNv9FkQebxQdJ1lwXrUhMDVwBN1e8MW7RZUEdwSyDjVT10GV73WIwWyhXWPRYsV8yNGUvx5c6LDgsIj3KBO0wWtw0FUpl8nluTcmreGxsloFUb6yQEq0A52WNwWk/25LJ0gvMK+6yS8aaLviPwWGVnt9+cYLg5BsoBiaAmfHnpyLHwKT+89EtiORON+RLui3SyZVD3nK/DDfc+rj847LcXqnsNTECxLhQB4LThN27wpNdZFpeKB1JPH7hbAsY4OC63hzJ93g0BLF6HteALEuAqN+Cxla2HW1XvAtxolwc1PQlHLQMueUtAn6NxZCuYLhSskNNT53jFIX51JByJNL2uNNiRHOQqUJofKPFSDYhx1BNMU/ZY4PyBR5vFcAOuVr3LypZCzl3i2DJfUzhi1YakG6iF9dNz5TEbo73Lyt3YPUN3CpS5f/2y4b7TrEcNNWuMYwwuvwFrDJ9/GmHKunPOzkZ8Lv254P+5wKv2xZJDHqkcfAIvu/jcCSe/cVM7MUNkLyZA4bsbp86ouwpN7BJVbiuo0JgnToeXWl3PSJoFUJzD3IVV3GE6K98NbHvWOZQj2BkAOJi8VOYARj8e/ap+i3YmAqM11qhfa+EF9i+4SOcP3CU3c0cKYBNsiR+RI9yB0gEJWGzoL7Y8okvHm11ORh+cjGFM48ydDY4LuLS8EKsDNPjaIDoAHCRaWBPndyTMoszKYVEVdsgLRBw5rzf6Ds8fuFsZrsGhN1ZCESd/pMxIVMG1hvADTRywfyKMw8/0OL7EMdd1k+XFzuR7T5b7YbDiDuIA8IwBJXtu7jjwwCAjDzEJvTU0/TiRGjRizr6M8wQXzQMrWhvgD8gBwBlhPP6bJ+7i09hfPObG65jzZRc29/Am9ngHVeDHnLBiYXmxBD/gyDQLvx3H4lWWOa0cznmvftj5ucrbE6jcBqzK5uXmnWQJA2T0xEMKSnyllJ0WN79EfpFK0vbhIqF4YJHd0ierf/vAonp1Kpk/dkDtpePxZLo3G+U7V20r2NEXNcw1OgIF0Dnr36m5OTOCS6mEsNEz+JzaxeHFnBHpISqPOpVsfT23DMeK2NxbXVrxDA5XHc5UJdSWHWocjG9WjkAdchg7eXAAoeGUteyzedvxuEVFpzeiAEDdhd6vcomRJ9e4CR7mtxuTL14e4TqxGWsO1fBRdRztHF/Fhe5pn7252zY/fZYHlspD6VKMxM0l6qMAb55YnkfZtEflQiMTiG2w2/zORnjo9fIIxtksdumGGP3z0JN72stQdXdA9z1ybw6c3Ac3fsNHJ3fkkzlMtFF4PyNz8Xu4kWGVxWVw8DxYsa+xdFzCznIVr/vjTIe+7gifPXksS2GimiXHjlqYMUJEJirBTh6vsEObUxuZbu3eiW9MKsOqUOK631FPvexfX4sFtyfk5q64t2wMPITLhZ1vzKtzhseo3t+g5HAwMzPr3lZBZdXCRn12aPcYJbW4Jceic+S451Pjc+PAq3lT8RVvy+EKPALdixcO/eKHo16O82F5EqCncil98WMxL2f5sPD781k+LE1nGIxtzyNMN7+a5cOqeK79woPTviZzjzq8H+TDUbjfGORj8HMBgTh9jXVzjtSrQT7sMYRhYVyBNWqO1OtBPuTZcKvLEjScMo5olc7RMp8N8iGa5KJyCBETH6/UXg3y4cFvDPI5f97OH+8H+eAk5yzAQ+FeUz8b53KQj0W/784gn1ngyOlvjQntjwb5GBcQC3fTzuVfjtiLGDO5x1G6DjFzgSLziXBSwTBxUuB1kJndLcq9eqzl9JOnFkHmE+m6sXUQuARmj/sYodN9r81i66BOpxlSl3Lw+64G+exdyh8N8uFuMQYp2GrTfc3X9SCfc728X/rFIJ+jFTjkb65dqRumw9maEWYKLm0Nj3AeRhZoRd+icDHIR78quQAumAOKszMvpvhoXPlwI0E0a30F7vicTR9k9/0QH85VZLE/Tmmv3ju4HOJzIg13hvhQAIX7Ujj4NQyLuhziw5Jq4ba30VL2I5ivh/iwKS7GbJYd53xXXNwxmztCU9/lEB/GkHTGHxOcgE8m+MyTQR6WE3zOH/hgkKvxPfNXDpob1eLzmZfje06u9c74nvki+Q/OI42VAu+n98zVcJyH0xhjcoReTe85A0Y3pveci0e+emC5kMhy+InvhvecKIA7w3vOVc7ud7yf3HOu5fbE+/vJPUeVel9xr/Xwq+K2w1C6W24INMEz5fjNA8tlZcaW/FG5RzEOoFpsKsNZTv1lXQZnfbgLv9pUNmM97sJvbCozbirjuJZmjHU4Yq82lRG8FU4qaczVxTV27zeV2fc2lTEgBc+XK6MBeTy6v9pUZtxURo+Kf+2jMZebyux7m8qMrccmw7gKKQzov9pURpDbSuf8/eRH/VxuKbPvbSmbc1G47YG+ZkhxX20pM24pU9ayAqyEifBXxU72nS1lOPQsT7gnufHAdaiYQTYLBy5RIO9A5m7Nyp26oajpar+Fza2VMPOVDQrBCrxfU2bfW1NmTFkody0loJKwiXuxqIzsVb5GD9vO0Yeip7eLysjRcVzWcgYVRahxcxO+VXqoIL7cU2YceGRf1RmhUuByT5l9b08ZVVNnLbOxQD1Ot3m/p4y6kEnTTqfKaabLNWVUv47QG1vKSGjhSHbOkW7+Tq/WlM33QUBrjAb5cTFXO8rsOzvKHs7zzUSSfbqkjMuWXPPZakmZcUkZ3Qd2jz/f1Q2Xz+ZeMEJvLnDQsPL1Yk2ZfW9NmTF3WWgl4BGVUGx5uahsjucCbwArZl8PdLmn7AiVdvd9sacs4qvViwuQ7+MDK8OxPoB/+ceffv/l6z/+8te//e2fv//263/9fPz7v/z628//+duv//r7n59/9M9f/vSPn/Ff/x8=);strokeColor=none;spacingTop=-3;spacingBottom=-3;spacingLeft=-3;spacingRight=-3;points=[];labelBackgroundColor=none;rounded=0;html=1;whiteSpace=wrap;" vertex="1" parent="1">
          <mxGeometry x="1650.5" y="769" width="77" height="30" as="geometry" />
        </mxCell>
        <mxCell id="wbwyxBnnDAt64wQGkXWY-44" style="edgeStyle=orthogonalEdgeStyle;rounded=0;orthogonalLoop=1;jettySize=auto;html=1;entryX=0.496;entryY=-0.004;entryDx=0;entryDy=0;entryPerimeter=0;" edge="1" parent="1" target="wbwyxBnnDAt64wQGkXWY-33">
          <mxGeometry relative="1" as="geometry">
            <mxPoint x="1685" y="812" as="sourcePoint" />
            <mxPoint x="1685" y="878" as="targetPoint" />
          </mxGeometry>
        </mxCell>
        <mxCell id="wbwyxBnnDAt64wQGkXWY-45" value="TCP" style="edgeLabel;html=1;align=center;verticalAlign=middle;resizable=0;points=[];container=0;" vertex="1" connectable="0" parent="wbwyxBnnDAt64wQGkXWY-44">
          <mxGeometry x="-0.0566" y="2" relative="1" as="geometry">
            <mxPoint as="offset" />
          </mxGeometry>
        </mxCell>
        <mxCell id="wbwyxBnnDAt64wQGkXWY-46" value="" style="group" vertex="1" connectable="0" parent="1">
          <mxGeometry x="881" y="711" width="930" height="334.61" as="geometry" />
        </mxCell>
        <mxCell id="wbwyxBnnDAt64wQGkXWY-47" style="vsdxID=6;fillColor=none;gradientColor=none;shape=stencil(vVNdD4IgFP01POIQms1nq//BEpVF4q6U9u/DoFJxPdjm2/04cO65cBDL2oo3AlHSGtAX0cncVIgdEKWyrgRIYyPEjohlhQZRgr7VucsbPiCH6Krvww29O0eGE5Q8XJaSaPcqnByWw9k2wWNZRFMHhzc+SlwhQHhATDxBj3kvWwzacCN1PSFXHEqBLRcuFC8nrbYTognKfjol65GSNIn28SL5SjGf2efL2UBMwO1nWykl3M1mzxJ8ib/eZHkrG8j47RMbfA1WSKWcP8f9uSFtyZmZHZ8=);strokeColor=#5282ff;spacingTop=-3;spacingBottom=-3;spacingLeft=-3;spacingRight=-3;points=[];labelBackgroundColor=none;rounded=0;html=1;whiteSpace=wrap;container=0;" vertex="1" parent="wbwyxBnnDAt64wQGkXWY-46">
          <mxGeometry width="930.0000000000001" height="329.99999999999994" as="geometry" />
        </mxCell>
        <mxCell id="wbwyxBnnDAt64wQGkXWY-48" value="" style="group" vertex="1" connectable="0" parent="wbwyxBnnDAt64wQGkXWY-46">
          <mxGeometry width="930.0000000000001" height="334.61" as="geometry" />
        </mxCell>
        <mxCell id="wbwyxBnnDAt64wQGkXWY-49" value="&lt;div style=&quot;font-size: 1px&quot;&gt;&lt;font style=&quot;font-size:22.58px;font-family:Arial;color:#000000;direction:ltr;letter-spacing:0px;line-height:120%;opacity:1&quot;&gt;Patroni cluster&lt;br&gt;&lt;/font&gt;&lt;/div&gt;" style="verticalAlign=middle;align=center;overflow=width;vsdxID=7;fillColor=none;gradientColor=none;shape=stencil(nZBLDoAgDERP0z3SIyjew0SURgSD+Lu9kMZoXLhwN9O+tukAlrNpJg1SzDH4QW/URgNYgZTkjA4UkwJUgGXng+6DX1zLfmoymdXo17xh5zmRJ6Q42BWCfc2oJfdAr+Yv+AP9Cb7OJ3H/2JG1HNGz/84klThPVCc=);strokeColor=none;points=[];labelBackgroundColor=none;rounded=0;html=1;whiteSpace=wrap;container=0;" vertex="1" parent="wbwyxBnnDAt64wQGkXWY-48">
          <mxGeometry y="190" width="103.28936170212768" height="50.64" as="geometry" />
        </mxCell>
        <mxCell id="wbwyxBnnDAt64wQGkXWY-50" value="" style="shape=image;verticalLabelPosition=bottom;verticalAlign=top;imageAspect=0;aspect=fixed;image=data:image/svg+xml,PHN2ZyB4bWxucz0iaHR0cDovL3d3dy53My5vcmcvMjAwMC9zdmciIHdpZHRoPSIzMiIgaGVpZ2h0PSIzMiIgdmlld0JveD0iMCAwIDMyIDMyIiBmaWxsPSJub25lIj4mI3hhOzxwYXRoIGQ9Ik0wIDE2QzAgNy4xNjM0NCA3LjE2MzQ0IDAgMTYgMFYwQzI0LjgzNjYgMCAzMiA3LjE2MzQ0IDMyIDE2VjE2QzMyIDI0LjgzNjYgMjQuODM2NiAzMiAxNiAzMlYzMkM3LjE2MzQ0IDMyIDAgMjQuODM2NiAwIDE2VjE2WiIgZmlsbD0iIzUyODJGRiIvPiYjeGE7PHBhdGggZmlsbC1ydWxlPSJldmVub2RkIiBjbGlwLXJ1bGU9ImV2ZW5vZGQiIGQ9Ik0xMyA4SDE4QzIxLjMgOCAyNCAxMC43IDI0IDE0VjI0SDIwVjIwSDIyVjE5SDE4LjZDMTUuNSAxOSAxMyAxNi41IDEzIDEzLjRWOFpNMTkgMTdIMjFWMTVIMTlWMTdaTTEyIDkuMDk5OThWMTMuNEMxMiAxNi44IDE0LjYgMTkuNyAxOCAyMC4xVjIwLjZDMTggMjIgMTUuOCAyMy4xIDEzIDIzLjFDMTAuMiAyMy4xIDggMjIgOCAyMC42VjExLjZDOCAxMC4zIDkuNyA5LjI5OTk4IDEyIDkuMDk5OThaIiBmaWxsPSJ3aGl0ZSIvPiYjeGE7PC9zdmc+;" vertex="1" parent="wbwyxBnnDAt64wQGkXWY-48">
          <mxGeometry x="19.787234042553195" y="250" width="51.702127659574465" height="51.702127659574465" as="geometry" />
        </mxCell>
        <mxCell id="wbwyxBnnDAt64wQGkXWY-51" value="Multi master репликция" style="text;html=1;align=center;verticalAlign=middle;whiteSpace=wrap;rounded=0;" vertex="1" parent="wbwyxBnnDAt64wQGkXWY-48">
          <mxGeometry x="510" y="120" width="60" height="30" as="geometry" />
        </mxCell>
        <mxCell id="wbwyxBnnDAt64wQGkXWY-52" value="master slave репликция" style="text;html=1;align=center;verticalAlign=middle;whiteSpace=wrap;rounded=0;" vertex="1" parent="wbwyxBnnDAt64wQGkXWY-48">
          <mxGeometry x="730" y="280" width="60" height="30" as="geometry" />
        </mxCell>
        <mxCell id="wbwyxBnnDAt64wQGkXWY-53" value="master slave репликция" style="text;html=1;align=center;verticalAlign=middle;whiteSpace=wrap;rounded=0;" vertex="1" parent="wbwyxBnnDAt64wQGkXWY-46">
          <mxGeometry x="250" y="280" width="60" height="30" as="geometry" />
        </mxCell>
        <mxCell id="wbwyxBnnDAt64wQGkXWY-54" style="edgeStyle=orthogonalEdgeStyle;rounded=1;orthogonalLoop=1;jettySize=auto;html=1;curved=0;entryX=0.996;entryY=0.376;entryDx=0;entryDy=0;entryPerimeter=0;" edge="1" parent="1" target="wbwyxBnnDAt64wQGkXWY-9">
          <mxGeometry relative="1" as="geometry">
            <mxPoint x="1621" y="789" as="sourcePoint" />
            <Array as="points">
              <mxPoint x="1371" y="789" />
              <mxPoint x="1371" y="881" />
            </Array>
          </mxGeometry>
        </mxCell>
        <mxCell id="wbwyxBnnDAt64wQGkXWY-55" style="edgeStyle=orthogonalEdgeStyle;rounded=1;orthogonalLoop=1;jettySize=auto;html=1;curved=0;" edge="1" parent="1" source="wbwyxBnnDAt64wQGkXWY-22">
          <mxGeometry relative="1" as="geometry">
            <Array as="points">
              <mxPoint x="1521" y="749" />
              <mxPoint x="1521" y="861" />
              <mxPoint x="1619" y="861" />
              <mxPoint x="1619" y="860" />
            </Array>
            <mxPoint x="1621" y="860" as="targetPoint" />
          </mxGeometry>
        </mxCell>
        <mxCell id="wbwyxBnnDAt64wQGkXWY-56" style="rounded=1;orthogonalLoop=1;jettySize=auto;html=1;entryX=0.246;entryY=-0.012;entryDx=0;entryDy=0;entryPerimeter=0;curved=0;exitX=0.5;exitY=1.002;exitDx=0;exitDy=0;exitPerimeter=0;" edge="1" parent="1" source="wbwyxBnnDAt64wQGkXWY-13" target="wbwyxBnnDAt64wQGkXWY-40">
          <mxGeometry relative="1" as="geometry">
            <Array as="points">
              <mxPoint x="1377" y="459" />
              <mxPoint x="1521" y="459" />
            </Array>
            <mxPoint x="1378" y="369" as="sourcePoint" />
            <mxPoint x="1202" y="547" as="targetPoint" />
          </mxGeometry>
        </mxCell>
        <mxCell id="wbwyxBnnDAt64wQGkXWY-57" value="Active failover" style="edgeLabel;html=1;align=center;verticalAlign=middle;resizable=0;points=[];" vertex="1" connectable="0" parent="wbwyxBnnDAt64wQGkXWY-56">
          <mxGeometry x="0.1832" y="-1" relative="1" as="geometry">
            <mxPoint as="offset" />
          </mxGeometry>
        </mxCell>
        <mxCell id="wbwyxBnnDAt64wQGkXWY-58" style="edgeStyle=orthogonalEdgeStyle;rounded=0;orthogonalLoop=1;jettySize=auto;html=1;exitX=0.53;exitY=0.991;exitDx=0;exitDy=0;exitPerimeter=0;entryX=0.6;entryY=-0.023;entryDx=0;entryDy=0;entryPerimeter=0;" edge="1" parent="1" source="wbwyxBnnDAt64wQGkXWY-19" target="wbwyxBnnDAt64wQGkXWY-40">
          <mxGeometry relative="1" as="geometry">
            <mxPoint x="1651" y="539" as="targetPoint" />
          </mxGeometry>
        </mxCell>
        <mxCell id="wbwyxBnnDAt64wQGkXWY-59" value="health check" style="edgeLabel;html=1;align=center;verticalAlign=middle;resizable=0;points=[];" vertex="1" connectable="0" parent="wbwyxBnnDAt64wQGkXWY-58">
          <mxGeometry x="-0.2225" y="2" relative="1" as="geometry">
            <mxPoint y="-1" as="offset" />
          </mxGeometry>
        </mxCell>
        <mxCell id="wbwyxBnnDAt64wQGkXWY-60" style="edgeStyle=orthogonalEdgeStyle;rounded=1;orthogonalLoop=1;jettySize=auto;html=1;entryX=0.431;entryY=0.012;entryDx=0;entryDy=0;entryPerimeter=0;curved=0;" edge="1" parent="1" source="wbwyxBnnDAt64wQGkXWY-19" target="wbwyxBnnDAt64wQGkXWY-18">
          <mxGeometry relative="1" as="geometry">
            <Array as="points">
              <mxPoint x="1651" y="189" />
              <mxPoint x="1121" y="189" />
            </Array>
          </mxGeometry>
        </mxCell>
        <mxCell id="wbwyxBnnDAt64wQGkXWY-61" value="health check" style="edgeLabel;html=1;align=center;verticalAlign=middle;resizable=0;points=[];" vertex="1" connectable="0" parent="wbwyxBnnDAt64wQGkXWY-60">
          <mxGeometry x="0.7774" relative="1" as="geometry">
            <mxPoint y="-16" as="offset" />
          </mxGeometry>
        </mxCell>
        <mxCell id="wbwyxBnnDAt64wQGkXWY-62" value="" style="endArrow=classic;html=1;rounded=0;entryX=0;entryY=0.5;entryDx=0;entryDy=0;exitX=0.996;exitY=0.513;exitDx=0;exitDy=0;exitPerimeter=0;" edge="1" parent="1" source="wbwyxBnnDAt64wQGkXWY-13" target="wbwyxBnnDAt64wQGkXWY-20">
          <mxGeometry width="50" height="50" relative="1" as="geometry">
            <mxPoint x="1111" y="661" as="sourcePoint" />
            <mxPoint x="1161" y="611" as="targetPoint" />
          </mxGeometry>
        </mxCell>
        <mxCell id="wbwyxBnnDAt64wQGkXWY-63" style="vsdxID=5;fillColor=none;gradientColor=none;shape=stencil(vVPLEoIgFP0aljgEVuPa6j+YRGUica6U9vdhUKk4LWzG3X0cOPdcOIilTclrgShpDOiLaGVmSsQOiFJZlQKksRFiR8TSXIMoQN+qzOU175F9dNX3/obOnSP9CUoeLktIFL8KJ4flcLZN8NhtRJiDwxsf7VwhQHjAhniCDvNONhi04UbqakSuOBQCWy6cK16MWk0rRB2U/XRKVgMlSRwl+1nyhWI+s0+Xs4KYgNvPtlBKuJvVniX4En+9yfxWVpDx2yc2+Bosl0o5fw77U0PakjMzOz4B);strokeColor=#ff5958;spacingTop=-3;spacingBottom=-3;spacingLeft=-3;spacingRight=-3;points=[];labelBackgroundColor=none;rounded=0;html=1;whiteSpace=wrap;container=0;" vertex="1" parent="1">
          <mxGeometry x="971" y="926.96" width="130" height="105.5" as="geometry" />
        </mxCell>
        <mxCell id="wbwyxBnnDAt64wQGkXWY-64" value="&lt;div style=&quot;font-size: 1px&quot;&gt;&lt;font style=&quot;font-size: 22.58px; font-family: Arial; color: rgb(0, 0, 0); direction: ltr; letter-spacing: 0px; line-height: 120%; opacity: 1;&quot;&gt;PosrgreSQL&lt;br&gt;&lt;/font&gt;&lt;/div&gt;&lt;div style=&quot;font-size: 1px&quot;&gt;&lt;font style=&quot;font-size: 22.58px; font-family: Arial; color: rgb(0, 0, 0); direction: ltr; letter-spacing: 0px; line-height: 120%; opacity: 1;&quot;&gt;(replica)&lt;/font&gt;&lt;/div&gt;" style="verticalAlign=bottom;align=center;overflow=width;vsdxID=6;fillColor=none;gradientColor=none;strokeColor=none;spacingTop=-3;spacingBottom=-3;spacingLeft=-3;spacingRight=-3;points=[];labelBackgroundColor=none;rounded=0;html=1;whiteSpace=wrap;container=0;" vertex="1" parent="1">
          <mxGeometry x="971" y="971.96" width="130" height="53.21" as="geometry" />
        </mxCell>
        <mxCell id="wbwyxBnnDAt64wQGkXWY-65" value="" style="shape=image;verticalLabelPosition=bottom;verticalAlign=top;imageAspect=0;aspect=fixed;image=data:image/svg+xml,PHN2ZyB4bWxucz0iaHR0cDovL3d3dy53My5vcmcvMjAwMC9zdmciIHdpZHRoPSIzMiIgaGVpZ2h0PSIzMiIgdmlld0JveD0iMCAwIDMyIDMyIiBmaWxsPSJub25lIj4mI3hhOzxwYXRoIGQ9Ik0wIDE2QzAgNy4xNjM0NCA3LjE2MzQ0IDAgMTYgMFYwQzI0LjgzNjYgMCAzMiA3LjE2MzQ0IDMyIDE2VjE2QzMyIDI0LjgzNjYgMjQuODM2NiAzMiAxNiAzMlYzMkM3LjE2MzQ0IDMyIDAgMjQuODM2NiAwIDE2VjE2WiIgZmlsbD0iIzUyODJGRiIvPiYjeGE7PHBhdGggZmlsbC1ydWxlPSJldmVub2RkIiBjbGlwLXJ1bGU9ImV2ZW5vZGQiIGQ9Ik0xMyA4SDE4QzIxLjMgOCAyNCAxMC43IDI0IDE0VjI0SDIwVjIwSDIyVjE5SDE4LjZDMTUuNSAxOSAxMyAxNi41IDEzIDEzLjRWOFpNMTkgMTdIMjFWMTVIMTlWMTdaTTEyIDkuMDk5OThWMTMuNEMxMiAxNi44IDE0LjYgMTkuNyAxOCAyMC4xVjIwLjZDMTggMjIgMTUuOCAyMy4xIDEzIDIzLjFDMTAuMiAyMy4xIDggMjIgOCAyMC42VjExLjZDOCAxMC4zIDkuNyA5LjI5OTk4IDEyIDkuMDk5OThaIiBmaWxsPSJ3aGl0ZSIvPiYjeGE7PC9zdmc+;container=0;" vertex="1" parent="1">
          <mxGeometry x="1015.5" y="930.96" width="36.26923076923077" height="36.26923076923077" as="geometry" />
        </mxCell>
        <mxCell id="wbwyxBnnDAt64wQGkXWY-66" style="vsdxID=5;fillColor=none;gradientColor=none;shape=stencil(vVPLEoIgFP0aljgEVuPa6j+YRGUica6U9vdhUKk4LWzG3X0cOPdcOIilTclrgShpDOiLaGVmSsQOiFJZlQKksRFiR8TSXIMoQN+qzOU175F9dNX3/obOnSP9CUoeLktIFL8KJ4flcLZN8NhtRJiDwxsf7VwhQHjAhniCDvNONhi04UbqakSuOBQCWy6cK16MWk0rRB2U/XRKVgMlSRwl+1nyhWI+s0+Xs4KYgNvPtlBKuJvVniX4En+9yfxWVpDx2yc2+Bosl0o5fw77U0PakjMzOz4B);strokeColor=#ff5958;spacingTop=-3;spacingBottom=-3;spacingLeft=-3;spacingRight=-3;points=[];labelBackgroundColor=none;rounded=0;html=1;whiteSpace=wrap;container=0;" vertex="1" parent="1">
          <mxGeometry x="1435" y="926.96" width="130" height="105.5" as="geometry" />
        </mxCell>
        <mxCell id="wbwyxBnnDAt64wQGkXWY-67" value="&lt;div style=&quot;font-size: 1px&quot;&gt;&lt;font style=&quot;font-size: 22.58px; font-family: Arial; color: rgb(0, 0, 0); direction: ltr; letter-spacing: 0px; line-height: 120%; opacity: 1;&quot;&gt;PosrgreSQL&lt;br&gt;&lt;/font&gt;&lt;/div&gt;&lt;div style=&quot;font-size: 1px&quot;&gt;&lt;font style=&quot;font-size: 22.58px; font-family: Arial; color: rgb(0, 0, 0); direction: ltr; letter-spacing: 0px; line-height: 120%; opacity: 1;&quot;&gt;(replica)&lt;/font&gt;&lt;/div&gt;" style="verticalAlign=bottom;align=center;overflow=width;vsdxID=6;fillColor=none;gradientColor=none;strokeColor=none;spacingTop=-3;spacingBottom=-3;spacingLeft=-3;spacingRight=-3;points=[];labelBackgroundColor=none;rounded=0;html=1;whiteSpace=wrap;container=0;" vertex="1" parent="1">
          <mxGeometry x="1435" y="971.96" width="130" height="53.21" as="geometry" />
        </mxCell>
        <mxCell id="wbwyxBnnDAt64wQGkXWY-68" value="" style="shape=image;verticalLabelPosition=bottom;verticalAlign=top;imageAspect=0;aspect=fixed;image=data:image/svg+xml,PHN2ZyB4bWxucz0iaHR0cDovL3d3dy53My5vcmcvMjAwMC9zdmciIHdpZHRoPSIzMiIgaGVpZ2h0PSIzMiIgdmlld0JveD0iMCAwIDMyIDMyIiBmaWxsPSJub25lIj4mI3hhOzxwYXRoIGQ9Ik0wIDE2QzAgNy4xNjM0NCA3LjE2MzQ0IDAgMTYgMFYwQzI0LjgzNjYgMCAzMiA3LjE2MzQ0IDMyIDE2VjE2QzMyIDI0LjgzNjYgMjQuODM2NiAzMiAxNiAzMlYzMkM3LjE2MzQ0IDMyIDAgMjQuODM2NiAwIDE2VjE2WiIgZmlsbD0iIzUyODJGRiIvPiYjeGE7PHBhdGggZmlsbC1ydWxlPSJldmVub2RkIiBjbGlwLXJ1bGU9ImV2ZW5vZGQiIGQ9Ik0xMyA4SDE4QzIxLjMgOCAyNCAxMC43IDI0IDE0VjI0SDIwVjIwSDIyVjE5SDE4LjZDMTUuNSAxOSAxMyAxNi41IDEzIDEzLjRWOFpNMTkgMTdIMjFWMTVIMTlWMTdaTTEyIDkuMDk5OThWMTMuNEMxMiAxNi44IDE0LjYgMTkuNyAxOCAyMC4xVjIwLjZDMTggMjIgMTUuOCAyMy4xIDEzIDIzLjFDMTAuMiAyMy4xIDggMjIgOCAyMC42VjExLjZDOCAxMC4zIDkuNyA5LjI5OTk4IDEyIDkuMDk5OThaIiBmaWxsPSJ3aGl0ZSIvPiYjeGE7PC9zdmc+;container=0;" vertex="1" parent="1">
          <mxGeometry x="1479.5" y="930.96" width="36.26923076923077" height="36.26923076923077" as="geometry" />
        </mxCell>
        <mxCell id="wbwyxBnnDAt64wQGkXWY-69" value="" style="endArrow=none;dashed=1;html=1;rounded=0;exitX=1.015;exitY=0.531;exitDx=0;exitDy=0;exitPerimeter=0;entryX=0.527;entryY=0.995;entryDx=0;entryDy=0;entryPerimeter=0;" edge="1" parent="1" source="wbwyxBnnDAt64wQGkXWY-63" target="wbwyxBnnDAt64wQGkXWY-9">
          <mxGeometry width="50" height="50" relative="1" as="geometry">
            <mxPoint x="1311" y="1041" as="sourcePoint" />
            <mxPoint x="1361" y="991" as="targetPoint" />
            <Array as="points">
              <mxPoint x="1216" y="983" />
            </Array>
          </mxGeometry>
        </mxCell>
        <mxCell id="wbwyxBnnDAt64wQGkXWY-70" value="" style="endArrow=none;dashed=1;html=1;dashPattern=1 3;strokeWidth=2;rounded=0;exitX=0.515;exitY=0.995;exitDx=0;exitDy=0;exitPerimeter=0;entryX=1.008;entryY=0.484;entryDx=0;entryDy=0;entryPerimeter=0;" edge="1" parent="1" source="wbwyxBnnDAt64wQGkXWY-33" target="wbwyxBnnDAt64wQGkXWY-66">
          <mxGeometry width="50" height="50" relative="1" as="geometry">
            <mxPoint x="1471" y="1041" as="sourcePoint" />
            <mxPoint x="1521" y="991" as="targetPoint" />
            <Array as="points">
              <mxPoint x="1686" y="978" />
            </Array>
          </mxGeometry>
        </mxCell>
        <mxCell id="wbwyxBnnDAt64wQGkXWY-71" value="" style="endArrow=none;dashed=1;html=1;dashPattern=1 3;strokeWidth=2;rounded=0;entryX=-0.019;entryY=0.519;entryDx=0;entryDy=0;entryPerimeter=0;exitX=1.015;exitY=0.573;exitDx=0;exitDy=0;exitPerimeter=0;" edge="1" parent="1" source="wbwyxBnnDAt64wQGkXWY-9" target="wbwyxBnnDAt64wQGkXWY-33">
          <mxGeometry width="50" height="50" relative="1" as="geometry">
            <mxPoint x="1251" y="1291.0000000000002" as="sourcePoint" />
            <mxPoint x="1591.3799999999997" y="1270.8700000000001" as="targetPoint" />
            <Array as="points">
              <mxPoint x="1421" y="901" />
              <mxPoint x="1421" y="886" />
            </Array>
          </mxGeometry>
        </mxCell>
      </root>
    </mxGraphModel>
  </diagram>
</mxfile>
